/* XPM */
static char *_ca6704291c9432abb698bb44b199d0dSO6raD2UJa7lty8H[] = {
/* columns rows colors chars-per-pixel */
"64 64 123 2 ",
"   c #243A5C",
".  c #24395B",
"X  c #23395A",
"o  c #233859",
"O  c #243B5D",
"+  c #2D4974",
"@  c #385A90",
"#  c #3A5E97",
"$  c #3A5D95",
"%  c #2E4975",
"&  c #294268",
"*  c #345487",
"=  c #3A5E96",
"-  c #325181",
";  c #273F64",
":  c #253C60",
">  c #304D7B",
",  c #395C93",
"<  c #36588C",
"1  c #2B456E",
"2  c #284167",
"3  c #2A436B",
"4  c #29436A",
"5  c #273F63",
"6  c #253B5E",
"7  c #2A446C",
"8  c #325180",
"9  c #345485",
"0  c #335384",
"q  c #2B456D",
"w  c #273E63",
"e  c #253C5F",
"r  c #2F4C7A",
"t  c #345385",
"y  c #2E4A76",
"u  c #263D62",
"i  c #294269",
"p  c #2C4771",
"a  c #335283",
"s  c #314F7E",
"d  c #284065",
"f  c #355689",
"g  c #355588",
"h  c #355587",
"j  c #345587",
"k  c #263D61",
"l  c #284066",
"z  c #263D60",
"x  c #2E4A75",
"c  c #31507F",
"v  c #284168",
"b  c #263E62",
"n  c #335282",
"m  c #284067",
"M  c #274065",
"N  c #304D7A",
"B  c #395D94",
"V  c #314E7D",
"C  c #35568A",
"Z  c #2A446B",
"A  c #37598E",
"S  c #395B92",
"D  c #2E4B77",
"F  c #294168",
"G  c #304E7D",
"H  c #2A456D",
"J  c #36578A",
"K  c #304D7C",
"L  c #273F65",
"P  c #36568A",
"I  c #2F4B78",
"U  c #2B466F",
"Y  c #37588D",
"T  c #3A5E95",
"R  c #395C94",
"E  c #385B91",
"W  c #2D4872",
"Q  c #325182",
"!  c #3A5D94",
"~  c #2A436A",
"^  c #2C4872",
"/  c #2D4873",
"(  c #304E7C",
")  c #345486",
"_  c #325080",
"`  c #37598D",
"'  c #2F4C79",
"]  c #2A446D",
"[  c #375A8F",
"{  c #395C92",
"}  c #385B92",
"|  c #36578B",
" . c #314F7F",
".. c #314F7D",
"X. c #2E4A77",
"o. c #36578C",
"O. c #243A5D",
"+. c #263C60",
"@. c #243A5B",
"#. c #2C4770",
"$. c #2C4670",
"%. c #2B4670",
"&. c #2D4973",
"*. c #23395B",
"=. c #37598F",
"-. c #29426A",
";. c #2C4772",
":. c #3B5F97",
">. c #263E63",
",. c #3B5E97",
"<. c #385A91",
"1. c #335385",
"2. c #2F4D7A",
"3. c #385A8F",
"4. c #2F4C78",
"5. c #2D4975",
"6. c #335284",
"7. c #37588C",
"8. c #2B456F",
"9. c #253B5D",
"0. c #32507F",
"q. c #253C5E",
"w. c white",
/* pixels */
"    . X X X X X X o O + @ # $ $ $ # @ % O o X X X X X X X X & * = $ $ $ = $ - ; o X X X X X X X o : > , = $ $ $ # < 1 . X X X X ",
"  : 2 3 4 4 4 3 4 5 6 7 8 9 0 0 0 9 - q 6 w 4 3 4 4 4 3 2 e ; r t 0 0 0 t 0 y u : & 3 4 4 4 3 i u e p a t 0 0 0 9 s i 6 d 4 4 4 ",
". 2 s f g h h g j y k e l 2 2 2 2 2 l e z x * g h h g f c v 6 5 2 2 2 2 2 2 b 6 7 n f h h h f t p e z m 2 2 2 2 2 M 6 ; N g g h ",
"X 3 f = $ $ $ = B s b z i 3 3 3 3 3 i z b V B = $ $ $ = C Z 6 l 3 3 3 3 3 3 ; 6 p A # $ $ $ # S D : b 4 3 3 3 3 3 F e l 0 = = $ ",
"X 4 g $ B , , $ , G w H t J f f f J 9 1 b K , $ , , B $ g 4 L V P f f f C f I b U Y T R , , $ E y u W h J f f f J Q i d n ! ! , ",
"X ~ g = $ B B = B G w ^ @ # $ $ $ # @ / w ( R = B B $ = f 4 2 ) = = $ $ = $ _ ; U ` = ! B B = E y b ' , # $ $ $ # < ] d a $ $ B ",
"X 4 h $ R , , ! , ( w p A $ , , , $ [ W w > { $ , , , $ g 4 2 t $ B , , $ R c ; U < $ , , , $ @ x b I } $ , , R $ | 7 d Q B B , ",
". L y  .s s s  ...U k / @ = ! ! ! = @ + k 1 .. .s s s  .X.; v ) = $ ! ! = $ _ ; 2 r c s s s c ( 3 k ' , = ! ! $ = o.q k / s s s ",
"  6 b ; 5 5 5 ; 5 e 6 / A ! , { { ! A + 6 e 5 ; 5 5 5 ; k O.F t B , { { R , _ ; O b ; 5 5 5 ; w 6 +.' E B { { , ! J 1 O.z ; ; 5 ",
"@.k 7 #.$.$.$.#.%.2 e i ' V ( ( ( V ' i e 2 %.#.$.$.$.#.7 k w &.( ( ( ( ( ( #.k b q p $.$.$.#.U L e ] > G ( ( ( V X.l e i $.$.$.",
"*.i a =.A Y Y A Y r k O b w w w w w b O k ' Y =.Y Y A =.0 -.O.z w w w w w w e O 1 h [ Y Y Y =.| + e 6 w w w w w w k O.L  .A A Y ",
"X 3 f # T $ $ = $ s b w $.W ;.;.;.W $.5 b V B # $ $ $ # P 3 : Z ^ ^ ;.;.^ ;.i e p A :.$ $ $ # S D +.l p W ;.;.;.W 1 k l 0 = = $ ",
"X 4 h $ R , , ! , ( w U P @ A A A @ | #.>.> { $ , , , $ g 4 l - @ [ A A @ =.( w U < $ , , , $ @ x b y Y @ A A =.@ ) 3 d Q B B , ",
"X 3 f # $ $ $ = ! V w ^ @ ,.$ $ $ ,.<./ w ( B = $ $ $ # f 4 2 ) = = $ $ = $ _ ; U A # $ $ $ # S y b ' , # $ $ $ ,.< ] l a = = $ ",
"X i t S E @ @ S @ N w p A $ , , , $ =.W b ' @ S @ @ E S ) i 2 1.! R , , B , c ; 1 P { @ @ @ S A + b I E $ , , , $ J 7 L _ E E @ ",
"@.w $.y y y y y x 4 : / @ ,.$ $ $ ,.<.+ : i x y y y y y $.k F ) = = $ $ = $ - ; ; W X.y y y y + 2 k 2., # $ $ $ # < 1 +.] y y y ",
"  6 k b b b b b b 6 6 ;.| E 3.3.3.E o.W 6 6 b b b b b b z   2 a E @ 3.3.E @ s w   k b b b b b b O : I A E 3.3.@ E g ] O.e b b b ",
"@.w ;.4.I I I I D 7 e M ;.+ + + + + ;.d e 7 D 4.I I I 4.^ w k q + + + + + + 3 e d + ' I I I ' y i e F / + + + + + $.w k U I I I ",
"X -.) , } E E , E ( b O.b w b b b w b O k > @ , E E } , j 3   +.>.b b b b b e O $.| , E E E , A y e 6 b w b b b w k   d - S S E ",
"X 3 f = $ $ $ = B s w m D > r r r > D 2 b G B = $ $ $ # C 3 k p N 2.r r N r 1 z $.A # $ $ $ # S D k 4 ' > r r r > 5.; l a = = $ ",
"X 4 h $ R , , $ , ( w p Y B S S S R A ;.w > { $ , , R $ g 4 2 6., , S S , S s ; U 7.$ , , , $ @ x b D @ R S S S R f 7 d Q B B , ",
"X 3 f # T $ $ = $ V w ^ @ # $ $ $ # @ / w ( B # $ $ $ # f 4 2 ) = $ $ $ = $ _ ; U A :.$ $ $ # S y b ' , = $ $ $ # o.] l a = = $ ",
"*.& Q Y < < < Y o.I b ;.A $ , , , $ =./ b D | Y < < < ` n v 2 t $ B , , ! R c ; 7 ) A < < < ` f ;.b 4.} $ , , , $ J 7 ; G Y Y < ",
"@.k 4 8.1 1 1 1 1 d e &.@ ,.$ $ $ ,.<.+ e M 1 1 1 1 1 8.4 e & ) = = $ $ = $ - ; k 7 U 1 1 1 8.q w k N , # $ $ $ # < 1 e v 1 1 1 ",
"  6 b ; ; ; ; ; ; : 6 U ) < J J J < * $.6 : ; ; ; ; ; ; b O l  .o.| J J | | N w 9.w L ; ; ; L ; 6 : % f < J J | < a 3 O k ; ; ; ",
". M I - _ _ _ - 0.p z u 3 ] 7 7 7 ] 3 b : p c - _ _ _ - ' d e v ] 7 7 7 ] 7 l 6 i > - _ _ _ - s ] e ; 7 ] 7 7 7 ] -.z b 5._ _ _ ",
"X 4 g $ B R R $ , s b 6 ; l d d d l ; 6 u G , $ R R B $ f 3 O b d d d d d d k 9.#.Y = R R R $ E D e e M d d d d l 5 O l a ! ! R ",
"X 4 g = $ B B = R V w 4 s a Q Q Q a  .3 b ( , = B B $ = f 3 w D a n Q Q n Q / k $.` = B B B = E y k 8.8 a Q Q Q a K l l a $ $ B ",
"X 4 g $ B R R $ , ( w ;.[ = B B B = @ / w > , $ R R B $ g 4 2 t $ $ B B $ B 0.; U Y = R R R T E x b 4.S = B B B = | 7 d n $ $ R ",
"X ~ g = $ ! ! = B V w ;.[ = B B B = @ / w ( R = ! ! $ = f 4 2 t $ $ B B $ B 0.; U A # $ ! ! = } y b 4.{ = B B B = | 7 l a $ $ ! ",
". 2 G * ) 9 9 ) t + k ^ =.= R R R = 3./ k / t ) 9 9 ) * V l 2 9 $ ! R R $ B _ ; -._ j 9 9 9 * a 1 u ' S T R R B = | ] w I ) ) 9 ",
"  e M F v v v F v k 6 / 3.= B B B = @ + q.k 2 F v v v F L 6 F ) = $ B B $ $ - ; 6 l F v v v F 2 : z 2.{ = B B ! = o.1 6 w F F v ",
"  e l i i i i i i w 6 7 _ t 6.6.6.t 8 ] 6 w i i i i i i l e ; ' 0 0 6.6.0 0 y u e 2 -.i i i i & k e p n t 6.6.0 t ..& 6 ; i i i ",
". 2 s g g j j g * y k e d 2 l l l 2 l e z x * g j j h f  .v 9.w 2 l l l 2 l b 6 7 n f j j j f t p e z l 2 l l l 2 L 6 ; N g g j ",
"X 3 f = $ $ $ = B s b z i 3 3 3 3 3 i z b V B = $ $ $ = C Z 6 l 3 3 3 3 3 3 ; 6 p A # $ $ $ # S D : b 4 3 3 3 3 3 F e l 0 = = $ ",
"X 4 g $ B , , $ , G w H t J f f f J 9 1 b K , $ , , B $ g 4 L V P f f f C f I b U Y T R , , $ E y u W h J f f f J Q i d n ! ! , ",
"X ~ g = $ B B = B G w ^ @ # $ $ $ # @ / w ( R = B B $ = f 4 2 ) = = $ $ = $ _ ; U ` = ! B B = E y b ' , # $ $ $ # < ] d a $ $ B ",
"X 4 h $ R , , ! , ( w p A $ , , , $ [ W w > { $ , , , $ g 4 2 t $ B , , $ R c ; U < $ , , , $ @ x b I } $ , , R $ | 7 d Q B B , ",
". L y  .s s s  ...U k / @ = ! ! ! = @ + k 1 .. .s s s  .X.; v ) = $ ! ! = $ _ ; 2 r c s s s c ( 3 k ' , = ! ! $ = o.q k / s s s ",
"  6 b ; 5 5 5 ; 5 e 6 / A ! , { { ! A + 6 e 5 ; 5 5 5 ; k O.F t B , { { R , _ ; O b ; 5 5 5 ; w 6 +.' E B { { , ! J 1 O.z ; ; 5 ",
"@.k 7 #.$.$.$.#.%.2 e i ' V ( ( ( V ' i e 2 %.#.$.$.$.#.7 k w &.( ( ( ( ( ( #.k b q p $.$.$.#.U L e ] > G ( ( ( V X.l e i $.$.$.",
"*.i a =.A Y Y A Y r k O b w w w w w b O k ' Y =.Y Y A =.0 -.O.z w w w w w w e O 1 h [ Y Y Y =.| + e 6 w w w w w w k O.L  .A A Y ",
"X 3 f # T $ $ = $ s b w $.W ;.;.;.W $.5 b V B # $ $ $ # P 3 : Z ^ ^ ;.;.^ ;.i e p A :.$ $ $ # S D +.l p W ;.;.;.W 1 k l 0 = = $ ",
"X 4 h $ R , , ! , ( w U P @ A A A @ | #.>.> { $ , , , $ g 4 l - @ [ A A @ =.( w U < $ , , , $ @ x b y Y @ A A =.@ ) 3 d Q B B , ",
"X 3 f # $ $ $ = ! V w ^ @ ,.$ $ $ ,.<./ w ( B = $ $ $ # f 4 2 ) = = $ $ = $ _ ; U A # $ $ $ # S y b ' , # $ $ $ ,.< ] l a = = $ ",
"X i t S E @ @ S @ N w p A $ , , , $ =.W b ' @ S @ @ E S ) i 2 1.! R , , B , c ; 1 P { @ @ @ S A + b I E $ , , , $ J 7 L _ E E @ ",
"@.w $.y y y y y x 4 : / @ ,.$ $ $ ,.<.+ : i x y y y y y $.k F ) = = $ $ = $ - ; ; W X.y y y y + 2 k 2., # $ $ $ # < 1 +.] y y y ",
"  6 k b b b b b b 6 6 ;.| E 3.3.3.E o.W 6 6 b b b b b b z   2 a E @ 3.3.E @ s w   k b b b b b b O : I A E 3.3.@ E g ] O.e b b b ",
"@.w ;.4.I I I I D 7 e M ;.+ + + + + ;.d e 7 D 4.I I I 4.^ w k q + + + + + + 3 e d + ' I I I ' y i e F / + + + + + $.w k U I I I ",
"X -.) , } E E , E ( b O.b w b b b w b O k > @ , E E } , j 3   +.>.b b b b b e O $.| , E E E , A y e 6 b w b b b w k   d - S S E ",
"X 3 f = $ $ $ = B s w m D > r r r > D 2 b G B = $ $ $ # C 3 k p N 2.r r N r 1 z $.A # $ $ $ # S D k 4 ' > r r r > 5.; l a = = $ ",
"X 4 h $ R , , $ , ( w p Y B S S S R A ;.w > { $ , , R $ g 4 2 6., , S S , S s ; U 7.$ , , , $ @ x b D @ R S S S R f 7 d Q B B , ",
"X 3 f # T $ $ = $ V w ^ @ # $ $ $ # @ / w ( B # $ $ $ # f 4 2 ) = $ $ $ = $ _ ; U A :.$ $ $ # S y b ' , = $ $ $ # o.] l a = = $ ",
"*.& Q Y < < < Y o.I b ;.A $ , , , $ =./ b D | Y < < < ` n v 2 t $ B , , ! R c ; 7 ) A < < < ` f ;.b 4.} $ , , , $ J 7 ; G Y Y < ",
"@.k 4 8.1 1 1 1 1 d e &.@ ,.$ $ $ ,.<.+ e M 1 1 1 1 1 8.4 e & ) = = $ $ = $ - ; k 7 U 1 1 1 8.q w k N , # $ $ $ # < 1 e v 1 1 1 ",
"  6 b ; ; ; ; ; ; : 6 U ) < J J J < * $.6 : ; ; ; ; ; ; b O l  .o.| J J | | N w 9.w L ; ; ; L ; 6 : % f < J J | < a 3 O k ; ; ; ",
". M I - _ _ _ - 0.p z u 3 ] 7 7 7 ] 3 b : p c - _ _ _ - ' d e v ] 7 7 7 ] 7 l 6 i > - _ _ _ - s ] e ; 7 ] 7 7 7 ] -.z b 5._ _ _ ",
"X 4 g $ B R R $ , s b 6 ; l d d d l ; 6 u G , $ R R B $ f 3 O b d d d d d d k 9.#.Y = R R R $ E D e e M d d d d l 5 O l a ! ! R ",
"X 4 g = $ B B = R V w 4 s a Q Q Q a  .3 b ( , = B B $ = f 3 w D a n Q Q n Q / k $.` = B B B = E y k 8.8 a Q Q Q a K l l a $ $ B ",
"X 4 j $ , , , ! , ( w ;.[ = B B B = @ / w > { ! , , , $ g -.2 t $ $ B B $ B 0.; 8.< $ , , , $ @ x b ' S = B B B = | 7 d Q B B , ",
"X 4 j $ , , , ! , ( w ;.[ = B B B = @ / w > { ! , , , $ g -.2 t $ $ B B $ B 0.; 8.< $ , , , $ @ x b ' { = B B B = | 7 d Q B B , ",
"X 4 j $ , , , ! , ( w ;.[ = B B B = @ / w > { ! , , , $ g -.2 t $ $ B B $ B 0.; 8.< $ , , , $ @ x b ' { = B B B = | 7 d Q B B , ",
"X 4 j $ , , , ! , ( w ;.[ = B B B = @ / w > { ! , , , $ g -.2 t $ $ B B $ B 0.; 8.< $ , , , $ @ x b ' { = B B B = | 7 d Q B B , ",
"X 4 j $ , , , ! , ( w p A $ , , , $ =.^ w > { ! , , , $ g 4 2 0 ! R , , B , c ; U < $ , , , $ @ x b I E $ , , , $ J 7 d Q B B , "
};
