/* XPM */
static char *_82b3a64dc414156841f57126426b1e49W9x3xU9KSLkeOoP[] = {
/* columns rows colors chars-per-pixel */
"64 64 182 2 ",
"   c None",
".  c #00070F",
"X  c #000B12",
"o  c #001116",
"O  c #05131A",
"+  c #0B151F",
"@  c #0E1621",
"#  c #0D1922",
"$  c #131624",
"%  c #111825",
"&  c #181827",
"*  c #1C1629",
"=  c #161A29",
"-  c #1C1A2B",
";  c #23172E",
":  c #221A2E",
">  c #231D32",
",  c #2B1C34",
"<  c #291B35",
"1  c #341436",
"2  c #341E3A",
"3  c #3B1D3D",
"4  c #311A37",
"5  c #1F2031",
"6  c #262037",
"7  c #2D233C",
"8  c #252B37",
"9  c #3B203E",
"0  c #3D1F40",
"q  c #332542",
"w  c #3E2141",
"e  c #3B2A46",
"r  c #2F3940",
"t  c #353A46",
"y  c #412243",
"u  c #482446",
"i  c #412A4E",
"p  c #4B2B4B",
"a  c #41274D",
"s  c #512E4E",
"d  c #4C314E",
"f  c #462D52",
"g  c #4D2F58",
"h  c #512D5B",
"j  c #4F3250",
"k  c #4F305A",
"l  c #4F385B",
"z  c #553251",
"x  c #5A3654",
"c  c #53315D",
"v  c #593B58",
"b  c #6B2E57",
"n  c #6B2F58",
"m  c #6D325A",
"M  c #5A3463",
"N  c #62366A",
"B  c #65396D",
"V  c #6C3B73",
"C  c #743D7A",
"Z  c #7A3C7E",
"A  c #733A79",
"S  c #475057",
"D  c #4B525A",
"F  c #68415F",
"G  c #60435E",
"H  c #575562",
"J  c #604761",
"K  c #6C4462",
"L  c #624A64",
"P  c #604069",
"I  c #6F4B67",
"U  c #744466",
"Y  c #7B4D6D",
"T  c #77407C",
"R  c #79407E",
"E  c #745B73",
"W  c #6C6375",
"Q  c #7A667C",
"!  c #913C6D",
"~  c #954372",
"^  c #91437F",
"/  c #9E437A",
"(  c #974976",
")  c #845976",
"_  c #8B5D79",
"`  c #A14A7F",
"'  c #84627B",
"]  c #92637E",
"[  c #7C3F80",
"{  c #7E4283",
"}  c #7C4D81",
"|  c #824484",
" . c #844886",
".. c #844588",
"X. c #864C89",
"o. c #894F8B",
"O. c #924581",
"+. c #954A84",
"@. c #8C528E",
"#. c #845088",
"$. c #9C578E",
"%. c #8F5690",
"&. c #8E5991",
"*. c #935D93",
"=. c #9F5F92",
"-. c #A25E86",
";. c #A45083",
":. c #8B6A83",
">. c #986F88",
",. c #986782",
"<. c #8B778A",
"1. c #8C7A8C",
"2. c #89738A",
"3. c #90778C",
"4. c #966599",
"5. c #9A6799",
"6. c #A66D8C",
"7. c #A5718C",
"8. c #AF6593",
"9. c #A26E9D",
"0. c #A46398",
"q. c #AE7594",
"w. c #B77E98",
"e. c #B5739B",
"r. c #A273A2",
"t. c #A77DAA",
"y. c #A97AA6",
"u. c #B87AA7",
"i. c #7F858A",
"p. c #868991",
"a. c #988898",
"s. c #938193",
"d. c #A8859A",
"f. c #BA829B",
"g. c #9B9EA3",
"h. c #B285AC",
"j. c #B789A2",
"k. c #AB9FAB",
"l. c #BC9BAE",
"z. c #AE8EB1",
"x. c #B58DB3",
"c. c #B987B4",
"v. c #BD94B4",
"b. c #B791B8",
"n. c #BE9BBC",
"m. c #BA96BB",
"M. c #A4A3AD",
"N. c #B0A1AF",
"B. c #B2A7B3",
"V. c #B9AFBA",
"C. c #C38FAF",
"Z. c #C194A9",
"A. c #C69CB8",
"S. c #CAA4BE",
"D. c #C8ACBB",
"F. c #CAAAC5",
"G. c #D2A9C4",
"H. c #CDB2C2",
"J. c #CBB3CD",
"K. c #C7BBC6",
"L. c #DABACC",
"P. c #D5B6C8",
"I. c #D2BCD2",
"U. c #DBB7D0",
"Y. c #CBC4CC",
"T. c #C7C2C9",
"R. c #D2C4CD",
"E. c #D2C9D3",
"W. c #DDCADB",
"Q. c #DDC1D1",
"!. c #D9D0D7",
"~. c #D9D3D9",
"^. c #E1CDDC",
"/. c #E4D4E2",
"(. c #E4DCE3",
"). c #E8DCE8",
"_. c #EBE6EC",
"`. c #E4E0E4",
"'. c #F1EAF2",
"]. c #F5F3F5",
"[. c #FCFBFC",
"{. c #F9F6F9",
/* pixels */
"                                                                                                                                ",
"                                                                                                                                ",
"                                                                                                                                ",
"                                                                                                                                ",
"                                                                                                                                ",
"                                                                                                                                ",
"                                                                                                                                ",
"                                                                                                                                ",
"                                                                                                                                ",
"                                                                                                                                ",
"                                                                                                                                ",
"                                                                                                                                ",
"                                                                                                                                ",
"                                                                                                                                ",
"                                                          @ + @                                                                 ",
"                                                          5 6 6 -                                                               ",
"                                                      O = e M f 6 O                                                             ",
"                                                      % 6 c V M q = @                                                           ",
"                                                    5 q f N Z B k e 7 %                                                         ",
"                                                O % q M V [ { { [ M e - O                                                       ",
"                                                = < f V  .@.*.*.o.{ k q - %                                                     ",
"                                            O 5 e g M { @.r.h.y.*.{ B k f 6 @                                                   ",
"                                          O @ 7 M V C ^ *.c.G.A.9.{ [ [ M e = O                                                 ",
"                                          5 6 f B { { R 4.v.L.S.r...[ { C k q > =                                               ",
"                                      o = e M B T { { { *.C.L.F.9.{ [ | { V M f 5 @                                             ",
"                                      % 6 l A { { { [ { *.v.L.S.r...R { { { R M q = @                                           ",
"                                    > q f M { ....{ [ { *.v.P.S.5.| { { | ..{ V k q 6 %                                         ",
"                                o # q M V { { ..{ { [ { *.v.P.F.r.| Z { { { { { T B e = O                                       ",
"                                = 6 f V | | { { { { [ [ *.A.U.F.r.| Z { { { { | ..{ c q - %                                     ",
"                            O - e g M { | ..{ { { ..[ [ 4.F./.I.t.{ Z { { { { | { { V c e 6 @                                   ",
"                          O @ 7 M C { { { { | { { { [ [ 4.J._.W.h.{ Z { { { { | { { { { B e % O                                 ",
"                          - 6 f N { | { { { { { { [ [ [ 4.J.'.W.h.{ Z { { { { { { { { { A g q > =                               ",
"                      O - q h N A { | | { { { { { [ A Z 4.H.'.^.t.{ A [ [ { { { { { { { R B M e < @                             ",
"                      O 5 l } @...| | ..| | | .. .o. .@.r.I.'./.z.@.X.X.X. .| | ^ | { |  .@.@.M q # O                           ",
"                      O 8 W x.c.0.+.O.O.O.O.O.;.9.h.x.m.J.(.{._.I.n.b.x.y.=.+.O.^ ^ ^ ^ $.u.b.2.t # X                           ",
"                      O t p.E.U.u.` / ! ` / ;.-.C.P.W./.'.].{.{.'.(.W.I.A.e.;./ / ` / / 8.G.W.M.D # .                           ",
"                      O 8 p.Y.H.q.~ ! ! ! ! ~ 6.j.D.R.W.`.].{.]._.~.E.D.Z.6.( ! ! ! ! ! -.S.R.g.D # X                           ",
"                      O 8 H 1.<.~ m b n m m m U ) :.1.s.M.!.].`.V.a.3.2.' Y m b m m b m U ' s.W t @ X                           ",
"                      + $ 7 d z p u y u u u u u p p p d E V._.E.1.v p p p p u u u u u u u s d 9 - + o                           ",
"                      O @ * ; , 3 9 w 9 9 9 9 9 3 3 1 3 H B._.Y.Q 9 1 3 3 0 0 w 9 9 9 9 9 4 ; ; $ +                             ",
"                          $ $ * 4 9 y 9 y 9 9 3 9 3 1 3 G B._.R.Q y 4 3 0 0 0 0 0 0 y y 9 : & $ +                               ",
"                          O + & , 9 9 w w y y y y 9 3 3 F N.`.D.Q u 3 9 0 y 0 0 y 0 0 9 4 - + O                                 ",
"                            O $ - , 4 9 y y w w 0 y 3 0 G d.P.N.E u 3 3 w w w y y 9 9 , : & +                                   ",
"                                # $ : 9 0 y w w y 0 3 0 G >.Z.d.I y 3 3 y w w w 0 9 , & $ +                                     ",
"                                O + - , 3 3 w y y 0 9 0 z ] f.7.F y 3 9 y w w w 9 7 : @ O                                       ",
"                                    $ - : 2 w y 0 y 9 0 z ] w.7.K u 3 w w y w 9 : ; & @                                         ",
"                                      + & : 9 w y 0 9 0 x ] f.7.K y 9 9 w w 9 , : @ +                                           ",
"                                      O @ ; , 2 9 0 9 y x ] f.7.K y 3 y 0 3 4 : @ O                                             ",
"                                          $ & : 9 9 9 9 x ] f.q.K u 3 9 9 , & $ @                                               ",
"                                          O + & < 9 3 9 x ' w.] F y 3 3 4 - + +                                                 ",
"                                            O $ - : 4 9 s U ) Y x y 2 , : & +                                                   ",
"                                                # & : 9 u s z s p 9 , & # +                                                     ",
"                                                O + - 4 2 2 2 2 2 4 : $ O                                                       ",
"                                                    $ - - - & ; - - & +                                                         ",
"                                                      + + + + + + + +                                                           ",
"                                                      O O O O O O O                                                             ",
"                                                                                                                                ",
"                                                                                                                                ",
"                                                                                                                                ",
"                                                                                                                                ",
"                                                                                                                                ",
"                                                                                                                                ",
"                                                                                                                                ",
"                                                                                                                                "
};
