/* XPM */
static char *_6ef6dc5666a440cf277cd053708b705qaaf7UBH1cwAOMiS[] = {
/* columns rows colors chars-per-pixel */
"64 64 155 2 ",
"   c None",
".  c #0D0D1F",
"X  c #140F21",
"o  c #0B1022",
"O  c #121324",
"+  c #36252F",
"@  c #212030",
"#  c #2C2B3B",
"$  c #352731",
"%  c #3A2731",
"&  c #3B2832",
"*  c #7A161E",
"=  c #4A1421",
"-  c #451D2D",
";  c #7C1B24",
":  c #7D1F28",
">  c #761821",
",  c #4B252E",
"<  c #56242E",
"1  c #58242D",
"2  c #442731",
"3  c #492731",
"4  c #432832",
"5  c #492832",
"6  c #562B35",
"7  c #5D2A35",
"8  c #5E323B",
"9  c #66232C",
"0  c #6E2029",
"q  c #74222B",
"w  c #79222B",
"e  c #6C2733",
"r  c #622934",
"t  c #692833",
"y  c #6D2D39",
"u  c #722833",
"i  c #7A2A34",
"p  c #722D39",
"a  c #7E2D39",
"s  c #6A363F",
"d  c #79333D",
"f  c #743540",
"g  c #743943",
"h  c #7B3D43",
"j  c #49475B",
"k  c #4C4C59",
"l  c #5C535E",
"z  c #73414D",
"x  c #5B6274",
"c  c #811E26",
"v  c #82212A",
"b  c #8E242E",
"n  c #91252F",
"m  c #98232E",
"M  c #842A34",
"N  c #852F3B",
"B  c #8D2E39",
"V  c #9B2733",
"C  c #9C2835",
"Z  c #9E2E39",
"A  c #84323C",
"S  c #8D313D",
"D  c #92313D",
"F  c #A42A36",
"G  c #AA2A36",
"H  c #A22C39",
"J  c #AB2C39",
"K  c #AC2734",
"L  c #A4313F",
"P  c #B6313E",
"I  c #BA313E",
"U  c #803844",
"Y  c #8D3943",
"T  c #A53441",
"R  c #AB3442",
"E  c #AF3B47",
"W  c #BD3541",
"Q  c #B73845",
"!  c #BA3946",
"~  c #B13542",
"^  c #C43542",
"/  c #CB3745",
"(  c #C23945",
")  c #CC3947",
"_  c #CE3C48",
"`  c #D13241",
"'  c #D23846",
"]  c #D23D4A",
"[  c #844049",
"{  c #914249",
"}  c #95484B",
"|  c #9A4E56",
" . c #82505E",
".. c #905456",
"X. c #BD454C",
"o. c #A64854",
"O. c #B34C53",
"+. c #A65057",
"@. c #945565",
"#. c #9D6F7B",
"$. c #916470",
"%. c #9E717C",
"&. c #A36369",
"*. c #A66978",
"=. c #D2414D",
"-. c #D9444F",
";. c #CD4B53",
":. c #D74752",
">. c #DB4550",
",. c #D44853",
"<. c #DB4B55",
"1. c #DE4F58",
"2. c #CC535A",
"3. c #DE525A",
"4. c #D6585E",
"5. c #E04B54",
"6. c #E04F59",
"7. c #E1545C",
"8. c #E4585F",
"9. c #E65B62",
"0. c #E85C63",
"q. c #DB6167",
"w. c #D76671",
"e. c #DE757F",
"r. c #D4747B",
"t. c #EA6167",
"y. c #EC6468",
"u. c #EE6C70",
"i. c #EA7A7E",
"p. c #DF7781",
"a. c #8E97AD",
"s. c #9098AF",
"d. c #C28587",
"f. c #DA878C",
"g. c #DE8C91",
"h. c #CD9294",
"j. c #ED898A",
"k. c #F28588",
"l. c #EF9498",
"z. c #F09DA1",
"x. c #DCB8BC",
"c. c #E3A5A9",
"v. c #F5A0A3",
"b. c #F9A1A4",
"n. c #F3ABAB",
"m. c #F8B9B9",
"M. c #B6C6D8",
"N. c #B7C9DB",
"B. c #B9CADC",
"V. c #DDDCDF",
"C. c #E4C2C5",
"Z. c #DDE0E3",
"A. c #EAE4E6",
"S. c #F1E4E5",
"D. c #F4EAEB",
/* pixels */
"                                                                                                                                ",
"                                                                                                                                ",
"                                                                                                                                ",
"                                                                                                                                ",
"                                                                                                                                ",
"                                                                                                                                ",
"                                                                                                                                ",
"                                                                                                                                ",
"                                                                                                                                ",
"                                                                                                                                ",
"                                                                                                                                ",
"                                                                                                                                ",
"                                                                                                                                ",
"                                                                                                                                ",
"                                                                                                                                ",
"                                                                                                                                ",
"                                                                                                                                ",
"                                                                                                                                ",
"                                                      4 4 4 4 4 4 4 4 4 4                                                       ",
"                                                  $ 6 L R T R T R R T R T 6 $                                                   ",
"                                                p A D ' ` ` ` ` / ` ` ` ) D N p                                                 ",
"                                              r Q -.] ( w.e.e.e.e.e.i.w.( ] 5.E r                                               ",
"                                            7 ! 7.u.q.L x.D.S.S.S.A.D.x.T q.u.7.! 7                                             ",
"                                          r Q 9.t.v.C.B Y { { { { { Y Y B C.v.0.9.! r                                           ",
"          $ + + + + + + % % + +         y E 7.y.X.+.&.v ; ; ; ; : ; ; ; v &.+.X.y.3.E p $ $ + + + + + + + + + + & + $           ",
"          h [ [ [ [ [ [ [ U [ [ g     y L :.y.7.C > * : ; v : * ; : c ; : * > Z 3.t.:.L d [ [ [ U [ [ [ [ [ [ [ [ [ h           ",
"        s 2.0.0.0.9.0.0.0.0.0.0.O.8 r ~ ] <.0.] V i h U U u i | | i u U U U i V =.0.<._ =.8.0.0.0.0.0.0.9.9.0.0.0.0.2.s         ",
"  4 2 s 4.=.) ) ) ) ) ) ) ) ) ) ,.4.( ) <.t.t.=.m  .a.a.s.j l A.A.l j a.a.s.@.K _ t.t.<.' _ ' _ ) ) ) ) ) ) ) _ ) ) =.4.s 4 4   ",
"& D R Q =.F b n n n n n n n n P ] =.V P 7.y.0._ m $.N.M.N.x @ k k @ x B.M.N.*.K ] 0.y.<./ ) ) G b n n n n n n n n n C =.Q R S & ",
"S H G G C 9 < 1 1 1 1 1 1 1 1 M F V c I 1.y.0.3.I o.#.#.%.z = = = = z %.#.%.o.( 3.0.y.1.^ F F b 9 1 1 1 1 1 1 1 1 1 9 C G ^ ^ D ",
"T i 9 9 9 3 & & % & & & & & & 1 0 w v P 6.y.y.y.6.P c ; ; c v c v c c ; ; c J 5.y.y.y.7.P v w q 1 & & & & & & & & & 3 9 9 M T T ",
"4 & 2 & 4                     & < q w P :.y.0.y.y.;.C v v v v v v v v c c V ^ <.y.y.0.:.J w w 1 &                     4 4 & 2 & ",
"                                  2 3 q J :.t.t.y.3.W C V V V V C C C C C W <.0.y.y.:.J q 3 3                                   ",
"                                      , B :.t.t.y.0.<.! r.g.g.f.f.g.g.r.^ / 3.y.y.0.:.B 3                                       ",
"                                      & N >.t.t.y.y.9.=.z.h.d.m.m.d.h.z._ :.9.y.0.y.>.N &                                       ",
"                                      % N >.t.t.t.y.9.=.l...h n.n.h ..l.] 9.y.y.y.y.:.N &                                       ",
"                                      & N >.0.y.t.t.9._ p.} A j.j.A } p.=.8.t.t.0.0.:.N &                                       ",
"                                      % N ] :.0.y.t.t.9.1.( ^ ,.,.( ( <.9.t.t.y.0.:.] N &                                       ",
"                                      % N ' ) :.9.y.y.t.8.5.5.5.:.5.1.1.t.t.y.9.:.) ' A %                                       ",
"                                      & a / ) ) ,.3.7.t.y.k.z.z.b.b.j.t.t.9.7.,./ / / a &                                       ",
"                                      & t F ^ ) ) / ] 0.0.c.Z.V.Z.Z.c.y.0.:./ ) ) ^ H e &                                       ",
"                                        4 r H ^ ' / :.0.u.[ # # # # [ y.0.] / / ^ F r 4                                         ",
"                                          5 r H ^ ) =.0.y.f . X X . f y.0.:.) ^ H r 2                                           ",
"                                            4 t Z ^ _ 1.y.g o O O o g y.1.] ^ Z e 4                                             ",
"                                              & e H ^ ^ 3.Y - - - - Y 1.^ ^ H e &                                               ",
"                                                & t C F ^ ^ ^ ^ ^ ^ / W C C t &                                                 ",
"                                                  4 7 C F J J G J G F G C 7 2                                                   ",
"                                                    3 r 7 r 7 r r r r r r 5                                                     ",
"                                                      & & & $ & $ & & & &                                                       ",
"                                                                                                                                ",
"                                                                                                                                ",
"                                                                                                                                ",
"                                                                                                                                ",
"                                                                                                                                ",
"                                                                                                                                ",
"                                                                                                                                ",
"                                                                                                                                ",
"                                                                                                                                ",
"                                                                                                                                ",
"                                                                                                                                ",
"                                                                                                                                ",
"                                                                                                                                ",
"                                                                                                                                ",
"                                                                                                                                "
};
