/* XPM */
static char *_bd8fb168f074e8e8d9cfddbba5e936aAuIHv0hDAt2HWWSG[] = {
/* columns rows colors chars-per-pixel */
"64 64 173 2 ",
"   c None",
".  c #0B0C1D",
"X  c #100E20",
"o  c #1A1627",
"O  c #362731",
"+  c #3B2731",
"@  c #3C2832",
"#  c #34242F",
"$  c #461927",
"%  c #411728",
"&  c #4C1C2B",
"*  c #421523",
"=  c #7C1C25",
"-  c #7D1F28",
";  c #4B252F",
":  c #54252F",
">  c #5E242E",
",  c #452731",
"<  c #4D2630",
"1  c #452933",
"2  c #4B2A34",
"3  c #542731",
"4  c #522A34",
"5  c #5A2A35",
"6  c #5A2732",
"7  c #55313A",
"8  c #64242D",
"9  c #6C222C",
"0  c #74222B",
"q  c #7E2029",
"w  c #652C37",
"e  c #672D38",
"r  c #6D2D38",
"t  c #6A2C37",
"y  c #742D39",
"u  c #792A36",
"i  c #61353D",
"p  c #79353B",
"a  c #343140",
"s  c #3B3D4C",
"d  c #403E4C",
"f  c #5D3545",
"g  c #683B46",
"h  c #7B3C44",
"j  c #703B43",
"k  c #534F5C",
"l  c #6C404A",
"z  c #7F545D",
"x  c #495064",
"c  c #5E5D69",
"v  c #5F6272",
"b  c #841E28",
"n  c #82212A",
"m  c #8A242E",
"M  c #93222E",
"N  c #9C222E",
"B  c #832733",
"V  c #8F2736",
"C  c #842A35",
"Z  c #8C2835",
"A  c #822D38",
"S  c #952430",
"D  c #962833",
"F  c #9B2934",
"G  c #9B2F3B",
"H  c #8C303D",
"J  c #91333D",
"K  c #9C323E",
"L  c #AC2734",
"P  c #A22A36",
"I  c #AB2D39",
"U  c #AA2833",
"Y  c #B42E3C",
"T  c #A7313E",
"R  c #B5313E",
"E  c #BB313E",
"W  c #C52F3D",
"Q  c #C8303E",
"!  c #8F3540",
"~  c #9F3743",
"^  c #A73441",
"/  c #AA3441",
"(  c #A33C47",
")  c #B53642",
"_  c #BB3542",
"`  c #B23844",
"'  c #B93B46",
"]  c #BB3E49",
"[  c #C53643",
"{  c #CC3745",
"}  c #C33944",
"|  c #CD3846",
" . c #C43D49",
".. c #CD3C49",
"X. c #D13745",
"o. c #D13846",
"O. c #D13E4B",
"+. c #864149",
"@. c #93454C",
"#. c #924A4C",
"$. c #93575A",
"%. c #B3424A",
"&. c #AC4C53",
"*. c #A74B52",
"=. c #BC4A52",
"-. c #B24E55",
";. c #AE5056",
":. c #B44A52",
">. c #985F6E",
",. c #846375",
"<. c #CD424D",
"1. c #D3414D",
"2. c #DB434E",
"3. c #CE4B54",
"4. c #C74852",
"5. c #D64551",
"6. c #DC4550",
"7. c #D44A53",
"8. c #DC4B55",
"9. c #DE4F58",
"0. c #D64E59",
"q. c #C8535A",
"w. c #D0545C",
"e. c #DD525B",
"r. c #E24D56",
"t. c #E14F58",
"y. c #E04551",
"u. c #E3555D",
"i. c #E4585F",
"p. c #EB555E",
"a. c #D95C62",
"s. c #E65B62",
"d. c #E85C63",
"f. c #D16A72",
"g. c #EA6166",
"h. c #EA6267",
"j. c #EB6468",
"k. c #E66369",
"l. c #EE777D",
"z. c #7B7A84",
"x. c #B47A81",
"c. c #C57985",
"v. c #D57D83",
"b. c #EB7E82",
"n. c #81818B",
"m. c #BA888D",
"M. c #C09297",
"N. c #CE9092",
"B. c #C49A9E",
"V. c #D6989C",
"C. c #EF8F8F",
"Z. c #F28689",
"A. c #F48F92",
"S. c #EF969A",
"D. c #EE999C",
"F. c #F49194",
"G. c #C89FA3",
"H. c #EF9CA0",
"J. c #D8ADB2",
"K. c #D6B4B8",
"L. c #F3ADAE",
"P. c #F7B5B7",
"I. c #F8B8B9",
"U. c #9CAEC5",
"Y. c #9EB1C7",
"T. c #EBC8CB",
"R. c #FCD2D3",
"E. c #C7D2E0",
"W. c #CAD6E4",
"Q. c #EBE7E8",
"!. c #E7E6E8",
"~. c #FDFDFE",
"^. c #F7F9FB",
/* pixels */
"                                                                                                                                ",
"                                                                                                                                ",
"                                                                                                                                ",
"                                                                                                                                ",
"                                                                                                                                ",
"                                                                                                                                ",
"                                                                                                                                ",
"                                                                                                                                ",
"                                                                                                                                ",
"                                                                                                                                ",
"                                                                                                                                ",
"                                                                                                                                ",
"                                                                                                                                ",
"                                                                                                                                ",
"                                                                                                                    +           ",
"                                                                                                                  r ! 2         ",
"          r 5                                                                                                   j %.) 2         ",
"        2 ) ! 7                                                                                               @ *.8.T 1         ",
"        2 T 9.*.,                                                                                             1 ~ R 0 ,         ",
"        , B } ( @                                                                                           7 ;.<.K <           ",
"          : G  .@.2                                       O O O O O O                                       2 4.6.J @           ",
"          @ J 6.w.2                                     w w w w e w w w                                     y _ [ A @           ",
"          @ H X.' 5                                 2 4 ` O.| | ....O./ 4 2                           7 2 y [ [ S 8 @           ",
"          , 8 P { ) w @ ,                       O y _ ' e.d.s.s.d.d.d.e.' _ y @                   @ 1 ;.a.w.[ D > ,             ",
"            < 8 P { :.;.@.@ #                 O u ] t.s.P.R.R.R.R.R.R.P.s.t.' u O               j &.&.7.r...D n 3 O             ",
"            @ < m I 7.p.3.+.+.i               y ] l.D.a.V.J.J.J.J.J.J.V.a.D.b.' y             j *.u.u.O.E F q 8 <               ",
"              : 0 q I [ 1.s.s.@.7           w } u.D.K.G S S S S M S S M K K.D.u. .e       7 i :.r.{ { } F - 9 <                 ",
"                < 0 n U { O.| e.*.1 2     r  .s.g.=.C - n q b q b n b - q C 4.d.s. .r + j a.s.7.{ { [ S q 9 ,                   ",
"                  < 9 m F { { O.3.q.=.g y %.s.g.%.m = = = = b = = q b = - = m %.g.i.] / _ 1.2.O.Y m S n 8 <                     ",
"                    : 9 m P { { 1.e.9.~ I y.g.e.D h ,.,.,.f g B.G.g f ,.,.,.h D 9.g.2.{ { { { R S q q 8 <                       ",
"                      : 9 n U [ | { { o.O.9.d.O.U >.U.U.Y.x c ~.~.c x Y.U.U.>.U O.d.9.O.{ { R Z q q 9 ;                         ",
"                        : 0 q I [ [ { { 9.j.d.O.W c.W.E.W.v k !.!.k v W.E.W.c.W O.d.j.9.[ } m q q 9 ,                           ",
"                          ; 0 m m S { { 8.j.g...P x.^.^.~.z.o a O o z.~.^.^.c.L O.d.j.9.E m n q 9 ,                             ",
"                            < 9 - n S _ e.h.g.i.[ ( m.~.~.n.. X X . n.~.~.m.%...i.g.j.e.R b q 8 <                               ",
"                              3 9 = - E 9.j.h.j.u.E J M.G.z * $ % % z G.M.! L 8.j.g.j.t.R 8 > <                                 ",
"                                3 9 0 R 8.d.h.h.j.7.F b = - n - q n - = b F } 9.g.g.d.8.^ , @                                   ",
"                                  , , ^ o.6.g.g.j.e.} P b b m b b b = b P [ 8.h.h.g.5.o.^ 1                                     ",
"                                    1 ^ o.1.g.g.j.g.e.} N N M S S S S U [ { e.h.h.g.5.{ ^ ,                                     ",
"                                    1 ^ X.5.h.g.g.j.i.O.f.N.v.v.v.v.N.f...8.s.h.h.h.5.o.^ 1                                     ",
"                                    1 ^ o.O.i.g.j.h.i.1.H.V.N.I.P.N.V.H.1.s.j.j.d.i.1.o.^ 1                                     ",
"                                    1 ~ [ { O.i.d.h.s...D.$.h L.L.h $.S.1.s.g.d.s...| { ~ ,                                     ",
"                                      1 H { { ..s.h.s...b.#.p C.C.p #.b...s.h.i.| { | H 2                                       ",
"                                      @ u E { { O.u.d.s.e.' ) 0.0.) ' e.i.g.u.O.{ { _ u @                                       ",
"                                        6 C _ { | O.e.h.8.6.6.6.2.6.6.8.d.e.O.{ { E C 3                                         ",
"                                          3 Z ) { { O.d.Z.F.A.A.A.A.S.Z.j.1.{ { _ B 4                                           ",
"                                            < Z E { O.k.T.Q.Q.Q.Q.Q.Q.T.k.O.{ _ Z <                                             ",
"                                              < B _ | <.l s s d d k a f <.| E C <                                               ",
"                                                6 u ) I Z % . X . . % Z I Y C 3                                                 ",
"                                                  5 u F W B & & & & C W P u 5                                                   ",
"                                                    3 Z Z Z Z Z Z Z Z Z Z <                                                     ",
"                                                      , , 2 , 2 < , 2 , ,                                                       ",
"                                                                                                                                ",
"                                                                                                                                ",
"                                                                                                                                ",
"                                                                                                                                ",
"                                                                                                                                ",
"                                                                                                                                ",
"                                                                                                                                ",
"                                                                                                                                ",
"                                                                                                                                ",
"                                                                                                                                ",
"                                                                                                                                ",
"                                                                                                                                ",
"                                                                                                                                "
};
