/* XPM */
static char *_1fa1a3f9cf0426ad9c55ea4d1d51e71j7419ga18rIQtUJR[] = {
/* columns rows colors chars-per-pixel */
"64 64 219 2 ",
"   c None",
".  c #07061A",
"X  c #3B321E",
"o  c #0F0E21",
"O  c #110E21",
"+  c #161223",
"@  c #181425",
"#  c #1E1827",
"$  c #171629",
"%  c #1A1729",
"&  c #1C192B",
"*  c #1F1D31",
"=  c #0D162E",
"-  c #241B29",
";  c #2A1D2B",
":  c #22182A",
">  c #321E2B",
",  c #1C2327",
"<  c #1F3A2A",
"1  c #2D222D",
"2  c #24252C",
"3  c #35232E",
"4  c #38242E",
"5  c #392B25",
"6  c #25362C",
"7  c #212035",
"8  c #24253B",
"9  c #352630",
"0  c #3B2631",
"q  c #372932",
"w  c #3D2932",
"e  c #342D39",
"r  c #3C313A",
"t  c #412933",
"y  c #4D2A32",
"u  c #4A393D",
"i  c #55393D",
"p  c #502A33",
"a  c #4A3D1C",
"s  c #2D4E31",
"d  c #26482D",
"f  c #3B6F38",
"g  c #544231",
"h  c #417E3B",
"j  c #746216",
"k  c #0B2341",
"l  c #062B4E",
"z  c #00274D",
"x  c #0B2F52",
"c  c #062C51",
"v  c #0E3254",
"b  c #103456",
"n  c #1A3C5E",
"m  c #14375A",
"M  c #162945",
"N  c #292C45",
"B  c #2D314C",
"V  c #2F3450",
"C  c #283E59",
"Z  c #313754",
"A  c #333A58",
"S  c #1D3F60",
"D  c #5A3F41",
"F  c #244465",
"G  c #2C4B6C",
"H  c #345272",
"J  c #3B5877",
"K  c #3A4E67",
"L  c #39455C",
"P  c #5A4445",
"I  c #474957",
"U  c #564D56",
"Y  c #5C5156",
"T  c #634443",
"R  c #6A4744",
"E  c #654945",
"W  c #684B48",
"Q  c #77524A",
"!  c #6B5552",
"~  c #6A5D5F",
"^  c #725A56",
"/  c #68514E",
"(  c #495266",
")  c #4C546A",
"_  c #6D5F61",
"`  c #44627F",
"'  c #5D6276",
"]  c #5D6479",
"[  c #656878",
"{  c #646876",
"}  c #756667",
"|  c #766F43",
" . c #A81E29",
".. c #BC1F27",
"X. c #99222C",
"o. c #922731",
"O. c #A72A34",
"+. c #B52732",
"@. c #B4272F",
"#. c #C21F26",
"$. c #CA2B35",
"%. c #D33634",
"&. c #937C09",
"*. c #E2443F",
"=. c #84594C",
"-. c #8B5E52",
";. c #845D53",
":. c #8E6255",
">. c #966859",
",. c #A06F5C",
"<. c #A4725E",
"1. c #A9755F",
"2. c #927672",
"3. c #A67B69",
"4. c #B27A63",
"5. c #AA6B77",
"6. c #BA6973",
"7. c #C87275",
"8. c #55A746",
"9. c #B69A08",
"0. c #A68D07",
"q. c #A8962F",
"w. c #CBAE0A",
"e. c #BD846A",
"r. c #B6826B",
"t. c #B98975",
"y. c #AE8677",
"u. c #A5A57D",
"i. c #F7B156",
"p. c #C3896E",
"a. c #C18467",
"s. c #C68D71",
"d. c #CA9275",
"f. c #C7967C",
"g. c #D49B7C",
"h. c #D99F7F",
"j. c #D29676",
"k. c #D9A17F",
"l. c #C1B34E",
"z. c #E9D64C",
"x. c #D2C355",
"c. c #0E4D87",
"v. c #366695",
"b. c #486482",
"n. c #536D8B",
"m. c #556E8A",
"M. c #57718D",
"N. c #4A739E",
"B. c #4D7097",
"V. c #5B7792",
"C. c #657C98",
"Z. c #7D7C8F",
"A. c #877A89",
"S. c #967588",
"D. c #A07A89",
"F. c #6A839E",
"G. c #78869C",
"H. c #6E84A2",
"J. c #7187A1",
"K. c #7389A3",
"L. c #7C8FA9",
"P. c #7A8DA6",
"I. c #7C93AC",
"U. c #96888C",
"Y. c #888998",
"T. c #BB9887",
"R. c #B2AA97",
"E. c #8092AC",
"W. c #989AA9",
"Q. c #8296B1",
"!. c #8A9DB6",
"~. c #848CA1",
"^. c #98A4B6",
"/. c #A9A8B2",
"(. c #CB9D85",
"). c #C49C82",
"_. c #D39F83",
"`. c #CDA28D",
"'. c #DAA282",
"]. c #DBAB8C",
"[. c #D4A487",
"{. c #D7AB93",
"}. c #D9B49C",
"|. c #E3AD8C",
" X c #E0A885",
".X c #E7B28E",
"XX c #E5B493",
"oX c #E8B794",
"OX c #EAB896",
"+X c #ECBC9A",
"@X c #E0BA95",
"#X c #F1BF9A",
"$X c #D9BAA6",
"%X c #CEB7B0",
"&X c #E2BCA4",
"*X c #EDCA97",
"=X c #ECC3A4",
"-X c #E5C4AA",
";X c #E2C5B1",
":X c #F6DABD",
">X c #EFD1BC",
",X c #ABB9CB",
"<X c #A4B4C7",
"1X c #B4BCCA",
"2X c #B3BED1",
"3X c #9FB3C7",
"4X c #BBC4D3",
"5X c #B6C4D5",
"6X c #B2C1D1",
"7X c #C9CAD2",
"8X c #CCD2DA",
"9X c #CFC9CC",
"0X c #E5CCC1",
"qX c #EBD7C6",
"wX c #F5DDCC",
"eX c #FAE4C8",
"rX c #F5E4D4",
"tX c #F6EBE6",
"yX c #F1F0F1",
/* pixels */
"                                                                                                                                ",
"                                                                                                                                ",
"                                                                                                                                ",
"                                                                                                                                ",
"                                                                                                                                ",
"                                                                                                                                ",
"                                                                              @ @ @ + + + + + + @ @ @                           ",
"                                                                            @ @ @ & - * * & * * @ @ @                           ",
"                                                          @ @ @ @ @ @ @ $ @ @ @ @ 8 A A A A A V & + @ @ @                       ",
"                                                        @ @ @ @ @ @ @ @ + @ @ @ @ 7 B V B B V B N 7 + @ @                       ",
"                                    @ @ @ @ @ @ @ @ @ @ @ @ @ + @ @ @ @ @ @ @ @ @ @ $ @ @ @ @ * Z B & $ @                       ",
"                                + @ @ @ @ @ @ @ @ @ @ @ @ @ @ @ @ @ @ @ @ @ @ + @ @ + @ @ + @ $ 7 B B * + @                     ",
"                                @ @ + @ @ @ @ @ @ @ @ @ @ + @ @ @ @ @ + @ @ @ @ @ @ @ + @ @ @ @ + 8 B N * $ @                   ",
"                            @ @ @ @ @ @ + @ @ @ @ @ @ @ @ @ @ @ @ @ @ @ @ @ @ @ @ @ @ @ @ @ @ @ @ @ & Z V & + @                 ",
"                            @ @ @ @ @ @ @ @ @ @ @ @ @ @ @ @ + @ @ @ @ @ @ @ + @ @ @ @ @ @ @ + @ @ + $ A Z & @ @                 ",
"                            @ @ @ @ + @ @ @ @ @ @ @ @ @ @ @ @ @ @ @ @ @ @ @ @ @ @ + @ @ @ @ @ @ @ + & Z Z & + @                 ",
"                            @ @ @ @ @ @ @ @ @ @ @ @ @ @ + @ @ @ @ + @ @ @ @ @ @ @ @ @ @ @ @ @ @ @ + & Z Z & @ @                 ",
"                            @ @ @ @ @ @ @ @ + @ @ @ @ @ @ @ @ @ @ @ @ @ @ @ + @ @ @ @ @ @ @ @ @ @ + & Z Z & @ @                 ",
"                            @ @ @ @ @ @ @ @ @ @ @ + @ @ @ @ @ @ @ @ @ @ @ @ @ @ @ O @ @ @ @ @ @ @ @ & Z V & + @                 ",
"                            @ @ @ @ @ @ @ @ @ @ @ @ @ @ @ @ + @ @ @ @ + @ @ @ @ @ @ @ @ @ @ @ @ + 7 Z N * @ @                   ",
"                            @ @ + @ @ @ + @ @ @ @ @ @ @ @ @ @ + @ @ @ @ $ @ @ @ @ @ @ @ @ @ @ $ 7 N V * + @                     ",
"                            @ @ @ @ @ @ @ @ @ @ @ @ @ @ @ @ @ + @ + @ @ + @ @ @ @ @ @ @ @ @ O * Z B & @ @ @                     ",
"                            @ @ @ @ @ @ @ @ + @ @ @ @ + + o + + + @ o o + + + @ @ @ @ @ @ @ @ & 8 7 @ @ @                       ",
"                            @ @ @ @ + @ @ @ @ @ @ + @ 1 q q q q q q q q q q : @ + + + @ @ @ @ @ @ @ @ @ @                       ",
"                            @ @ @ + @ @ @ @ @ @ @ o : Q 1.<.<.<.3.,.,.1.1.,.i @ @ + + @ @ @ @ @ + @ @                           ",
"                            @ @ @ @ @ @ @ @ @ @ @ 9 R 3.d.g.'.d.>.-.:.:.:.-.i 3 D E P E i ; - ; ; : @                           ",
"                            @ @ @ @ @ @ @ @ @ @ + T r.p.j.XX+X(.E w t t t t w i ,.e.e.r.:.y 0 w w 1 @                           ",
"                                @ + o o O O O @ + T p.h.|.oX#X).D > 4 4 0 4 4 t g <.[.>.i w 0 0 w 3 @                           ",
"                                @ e U Y Y Y e @ + T p.|.+X+X#X[.;.T R R R R R T R 3.].>.T R R T w : @                           ",
"                                + ~ $X;X;X$X_ O @ g e.'.XXXXXX].4.4.4.4.4.4.4.4.4.f.].t.4.4.4.>.4 @ @                           ",
"                                O } >X&X}.{.! o O 9 P / ! ! ! ! W T T T T T T E P W ! E T R E i # + @                           ",
"                                + } -X_.a.e.Q 9 q q 9 9 q q q 1 # & 6 6 6 6 # # 1 9 9 4 1 @ , 6 6 2 @                           ",
"                                @ ^ XXg.a.p.4.<.<.<.,.,.<.<.<.;.1 s 8.8.8.8.s 9 -.3.>.<.Q ; f 8.8.f @                           ",
"                                + ! XX].g.g.g.k.k.g.k.k.k.k.'.r.e 6 h f h f < e 4. Xh..X3.2 d h f s #                           ",
"                                + ! [.XXXX|..XXXXXXXoXoXXXoX#Xf.u # 2 1 2 1 , u (.+X+XwXR.B - 1 1 ; @                           ",
"                                  r E 3.g.g.].OXOXOXOXOXoXoX+X[.<.:.:.-.-.:.=.3.-X:X:XeX$X,.-.:.:.i #                           ",
"                                    # W ,.e.k.OXOXoXoX@X+X=X=X@X'.j.j.g.j.j.j.k.&X-X&X-X@Xg.g.d.<.E #                           ",
"                                      : i e.k.oXoXoXOXOX=X:XeX:X+X.XXXXXXXXXXX|.j.d.f.d._.].OXf.u @                             ",
"                                      . t 4.j.'..X+XOXoX=XeXeX:X+XOX.Xk.XXwXtXrXqX0X0XqX&X_.oXf.e .                             ",
"                                      8 U y.t.t.{.}.}.}.-XqXrXqX-X&X}.(.%XtXyXtXtXtXtXyX9XT.`.T.I 7                             ",
"                                    7 ] ~.W.W.W.W././.1X7X8X8X8X7X7X7X7X7X8X%X(._.(.`./.^.W.W.W.Y.) #                           ",
"                                    * ( M.n.H.!.!.J.n.C.K.J.J.K.K.K.F.F.!.5XU.=.=.=.;.Y.P.m.n.n.n.L &                           ",
"                                    & M b n m.I.Q.M.n b b b b b b v b m m.,X2.y p p D Z.F.F b b n M @                           ",
"                                    $ k F M.N.v.v.B.M.F z l l l l l b C.3X5X5.X.+.O.X.S.Q.C.G n n.( $                           ",
"                                    $ k H E.N.c.c.N.E.H c x x x x l m C.<X4X6...$.$.O.S.Q.C.G F K.] &                           ",
"                                    $ k H E.N.c.c.N.~.H l x v x x x x m m.,X5.X.O.X.o.S.H.F x F K.] #                           ",
"                                    $ k H E.N.c.c.N.L.H l b x x x l m m.^.5X6. .$.+.O.S.I.M.F F K.] #                           ",
"                                    $ k H L.N.c.c.N.L.H l x x x x l n J.6X5X6.#.$.$.+.D.!.J.H F K.] #                           ",
"                                    $ k H L.N.c.c.N.P.H l x x x x x v S M.1X3.X.O.O.o.A.C.G x F K.' &                           ",
"                                    $ k K U.A.] ] Z.U.K c x x x x x m J I.1X5.X.O.+.o.S.L.b.n F K.' &                           ",
"                                    $ k I r.s.p.p.s.r.L c x x x x l n P.5X4X7.%.*.%.$.S.!.L.J F G.{ &                           ",
"                                      = I f.|. X X.Xf.( z l l l l z l G F.4X@Xi.i.i.i.R.C.J m C 2.^ #                           ",
"                                      o P {.*X+X*XOX[.[ J b.` ` ` ` ` J C.4X*Xz.l.x.z.R.C.b.G ) 3.=.#                           ",
"                                      o P _.oXXX.Xh.e.Y.!.<X,X,X,X,X,X,X,X4Xx.9.g j w.u.Q.~.K.~.y.Q &                           ",
"                                        u / ^ ^ ^ W P U ) { { { { { { { { { q.w.0.0.w.| ( ( ) U P i                             ",
"                                          + + @ @ # : # # # # # # # # : + # j 9.0.9.0.g @ & @ + @                               ",
"                                            + @ > 4 3 3 3 3 3 3 4 4 3 4 3 4 5 X 5 X X 4 4 3 - +                                 ",
"                                            @ # 0 t t t t t t 0 3 ; 1 3 > 1 ; : : : ; 3 t t - @                                 ",
"                                            @ # 3 w t w w t t 0 : + @ @ @ # ; w w 0 w t t w ; @                                 ",
"                                                : > w t t w t 0 # +     O @ ; t w t t t 4 - #                                   ",
"                                                @ : 3 0 t w 4 ; #         & ; 3 0 t w 4 ; @                                     ",
"                                                    # 3 w 0 ; #             @ : 0 w 0 - #                                       ",
"                                                      - ; ; :                 # - ; ; #                                         ",
"                                                      @ @ @                     @ @ @                                           "
};
