/* XPM */
static char *_8adc98c19b449f5ab330e7400a3bb85Xa4AKdtDapg2VRME[] = {
/* columns rows colors chars-per-pixel */
"64 64 229 2 ",
"   c None",
".  c #0D0A1D",
"X  c #080619",
"o  c #110D1E",
"O  c #0E0D20",
"+  c #110E21",
"@  c #1B0C23",
"#  c #161224",
"$  c #181425",
"%  c #1E1A27",
"&  c #1A1628",
"*  c #1D192A",
"=  c #16172B",
"-  c #1C1D32",
";  c #0F1227",
":  c #231627",
">  c #241B2A",
",  c #2B1D2B",
"<  c #241527",
"1  c #2E1F2D",
"2  c #1F2229",
"3  c #19233A",
"4  c #162B34",
"5  c #23252A",
"6  c #2C222E",
"7  c #24282B",
"8  c #35232E",
"9  c #352726",
"0  c #252233",
"q  c #23243A",
"w  c #2C2A3B",
"e  c #2B2635",
"r  c #3B2631",
"t  c #3E2832",
"y  c #362631",
"u  c #3C323B",
"i  c #24382C",
"p  c #68192B",
"a  c #412933",
"s  c #492E35",
"d  c #4B353A",
"f  c #463439",
"g  c #593C3E",
"h  c #553A3D",
"j  c #4D2B2D",
"k  c #6E2630",
"l  c #2E5132",
"z  c #396B37",
"x  c #5A4C18",
"c  c #6D5D13",
"v  c #6A6136",
"b  c #052A4E",
"n  c #0F2A49",
"m  c #0B2F52",
"M  c #062D52",
"N  c #0C3053",
"B  c #0C355C",
"V  c #163759",
"C  c #112F50",
"Z  c #292C43",
"A  c #292C46",
"S  c #383849",
"D  c #2D3652",
"F  c #363C59",
"G  c #2D314A",
"H  c #143C64",
"J  c #453B44",
"K  c #593E41",
"L  c #3F4459",
"P  c #0F4171",
"I  c #104578",
"U  c #234364",
"Y  c #2C4C6D",
"T  c #364261",
"R  c #344A68",
"E  c #365575",
"W  c #2C4F70",
"Q  c #5C4244",
"!  c #554346",
"~  c #444658",
"^  c #574C55",
"/  c #614442",
"(  c #664B4A",
")  c #744D49",
"_  c #734C47",
"`  c #7B554D",
"'  c #72524C",
"]  c #6D5755",
"[  c #785B55",
"{  c #78635D",
"}  c #4B5367",
"|  c #425D7B",
" . c #535A6F",
".. c #6D5D67",
"X. c #48627E",
"o. c #596278",
"O. c #686A7B",
"+. c #776D70",
"@. c #903133",
"#. c #B5222B",
"$. c #A82935",
"%. c #B72A36",
"&. c #BB3A3C",
"*. c #A01F2C",
"=. c #D72A34",
"-. c #CF2E38",
";. c #C24C35",
":. c #AD3841",
">. c #803E4B",
",. c #D93642",
"<. c #865E51",
"1. c #905857",
"2. c #8C6153",
"3. c #84655C",
"4. c #986B5B",
"5. c #A16F5B",
"6. c #A6725E",
"7. c #905C69",
"8. c #B05763",
"9. c #8B6C62",
"0. c #997668",
"q. c #8D7273",
"w. c #A77A68",
"e. c #B37C65",
"r. c #B84E5C",
"t. c #CD4A4F",
"y. c #C67149",
"u. c #CE6E78",
"i. c #E25846",
"p. c #48883F",
"a. c #4C9441",
"s. c #4E9942",
"d. c #509B43",
"f. c #9C840A",
"g. c #B39107",
"h. c #AF9F28",
"j. c #C9AB02",
"k. c #D5A21A",
"l. c #98847E",
"z. c #A98574",
"x. c #B58E78",
"c. c #B68C78",
"v. c #B78770",
"b. c #CB814B",
"n. c #F3B653",
"m. c #C1876C",
"M. c #C48A6D",
"N. c #C6886A",
"B. c #C48D71",
"V. c #CC9173",
"C. c #CB957A",
"Z. c #CA977C",
"A. c #D49A7B",
"S. c #D59979",
"D. c #EFD85A",
"F. c #0C4B85",
"G. c #054682",
"H. c #124F88",
"J. c #114E86",
"K. c #145189",
"L. c #1C578D",
"P. c #245A8D",
"I. c #326698",
"U. c #3E6E9D",
"Y. c #2C6294",
"T. c #546B88",
"R. c #5B728E",
"E. c #5E7592",
"W. c #496788",
"Q. c #6A778D",
"!. c #787786",
"~. c #66758D",
"^. c #4D79A3",
"/. c #8C7A8D",
"(. c #A6798C",
"). c #76859C",
"_. c #69819D",
"`. c #5983AC",
"'. c #7689A3",
"]. c #7797B8",
"[. c #688FB4",
"{. c #938B96",
"}. c #A79799",
"|. c #B19283",
" X c #BAA59B",
".X c #8793A9",
"XX c #9398A9",
"oX c #889CB5",
"OX c #8B8CA4",
"+X c #99A4BA",
"@X c #8CA1BA",
"#X c #B8ADAE",
"$X c #A48CA3",
"%X c #C69C82",
"&X c #D59F80",
"*X c #CEA186",
"=X c #DDAC8C",
"-X c #D7A486",
";X c #D4AF98",
":X c #E2AD8B",
">X c #E5B08E",
",X c #E5B392",
"<X c #E8B794",
"1X c #E7B897",
"2X c #EAB996",
"3X c #EABC9A",
"4X c #E4B799",
"5X c #F1BF9B",
"6X c #CBB3A5",
"7X c #CBB9B4",
"8X c #EBBEA1",
"9X c #F6C29D",
"0X c #ECC09F",
"qX c #DAC6B7",
"wX c #ECC5A7",
"eX c #F2D4B8",
"rX c #F0CDB0",
"tX c #9FB5CD",
"yX c #90ACC8",
"uX c #A7B9CE",
"iX c #B9BBC6",
"pX c #A9ADC0",
"aX c #B0C2D6",
"sX c #D8C7C0",
"dX c #F6DCC1",
"fX c #F2DFD6",
"gX c #F8E4C9",
"hX c #F3E0D8",
"jX c #FEEFE4",
/* pixels */
"                                                                                                                                ",
"                                                                                                                                ",
"                                                      $ $ $ $ $ $ $ $ $ $ $ A T T T F T D > & & $ $                             ",
"                                          % $ $ $ $ $ $ # $ $ $ $ $ $ $ $ $ - q q q q q Z D F G % # =                           ",
"                                        $ $ $ $ $ $ $ $ $ $ $ $ $ $ $ $ $ $ $ # + $ $ o 0 G F G Z & # #                         ",
"                                    % $ $ # $ $ $ $ $ $ $ $ $ $ $ $ $ $ $ $ $ $ $ $ $ $ & * = 3 D G & $ $                       ",
"                                  $ $ $ $ $ $ $ $ $ $ $ $ $ $ $ $ $ $ $ $ $ $ $ $ $ $ $ $ # # $ Z A A - #                       ",
"                                $ $ # $ $ $ $ $ $ $ $ $ $ $ $ $ $ $ $ $ $ $ $ $ $ $ $ $ $ $ $ $ @ Z T q #                       ",
"                              $ $ $ $ $ $ $ $ $ $ $ $ $ $ # $ $ # $ $ $ $ # $ $ $ $ $ $ $ $ $ # # Z F q #                       ",
"                            $ $ $ # $ $ # $ # $ $ $ $ $ $ $ $ $ $ $ $ $ $ $ $ $ $ $ $ # $ $ $ # # Z T q #                       ",
"                          $ $ $ $ $ $ $ $ $ $ $ $ $ $ $ $ $ $ $ $ $ $ $ $ $ $ # $ $ $ $ # $ $ $ # Z T q #                       ",
"                        $ $ $ $ $ $ $ $ $ $ $ $ # $ $ $ $ $ $ $ $ $ $ $ $ $ $ $ $ $ $ $ $ $ $ $ # Z F q #                       ",
"                      $ $ $ $ $ $ $ $ $ $ $ $ $ $ $ $ $ $ $ $ $ $ $ $ $ $ $ $ $ $ # = $ $ $ $ $ @ q G 0 #                       ",
"                      $ $ $ $ $ $ $ $ # $ # $ $ $ $ $ $ $ $ $ $ $ $ $ $ $ $ $ $ $ $ # # $ $ $ $ $ = = & $                       ",
"                      $ $ $ $ $ $ $ $ $ $ $ $ $ # $ $ $ $ $ $ $ $ $ $ $ $ $ $ $ $ $ $ # $ $ $ $ $ $ $ $                         ",
"                      $ $ $ $ $ $ $ # $ $ $ $ $ $ $ $ $ $ # # # + $ # # # # # # # # # # $ $ $ $ $ $ $                           ",
"                      $ $ $ $ $ $ $ $ $ $ $ $ $ $ $ $ # $ # # # # # $ o # # # o # # $ @ # # $ $ $ $                             ",
"                      $ $ $ $ $ $ $ $ $ $ $ $ $ $ # o # 6 K / / / / / / / / / / / / / g / Q y $ $                               ",
"                      $ $ $ $ $ $ $ $ $ $ # $ $ $ : 5 2 g v.N.N.N.N.N.v.m.m.m.m.m.m.m.m.M.v.Q #                                 ",
"                      $ $ $ $ $ $ $ $ $ $ $ $ # o s 2.2.w.-X>X:X:X:X=X:X:X=X:X=X:X:X:X:X:X:X] $                                 ",
"                      $ $ $ $ $ $ $ $ $ $ $ + $ t ` N.S.A.c.c.c.c.*X2X2X2X2X2X2X<X2X2X2X,Xx.Q $                                 ",
"                      $ $ $ $ $ $ $ $ $ $ $ $ y 4.u.B.:Xc./ s s d 4.,X2X2X2X<X2X<X<X2X2Xx.K , $                                 ",
"                      $ $ $ o o o o o # $ % d 2.e.S.&X<Xc.s 1 9 8 h 3.-X0X2X2X2X2X9X>Xz.( t * $                                 ",
"                      $ $ $ e J S J S * # % ` M.V.-X2X3X%X/ h g g a f z.*X*X=X<X*X*Xx.( a h 8 #                                 ",
"                      $ # $ +.6X6X6X X! O % ` V.=X,X2X3X-Xv.6.6.6.` s h g / c.-X[ Q Q s g 5.Q #                                 ",
"                      $ # % l.dXwX3X;X! O $ d ` 9.9.9.9.3.` ` ` ` g , , : > ^ [ 8 % : , s _ a $                                 ",
"                      $ # % {.wXC.N.e.d + $ > 6 6 6 6 6 , % 2 i 7 7 7 % % , 6 6 6 : $ 2 5 5 % $                                 ",
"                        o : 9.1XV.m.e.f O $ K 2.2.2.2.2./ 5 l d.p.d.p.i 8 <.2.2.2.g 2 z s.a.l @                                 ",
"                          % 9.<XA.S.B.' f d 4.A.S.S.S.A.5.7 l p.p.s.p.i d c.A.A.-X3.2 z s.a.l $                                 ",
"                          % 9.<X,X,X=XB.e.e.Z.<X,X,X>X2Xz.e % 7 7 7 2 % Q -X<X0XeXl.5 % 5 5 * $                                 ",
"                          $ J 3.B.:X<X:X-X-X>X2X2X1X2X2XZ.<._ _ ' ) _ _ 0.:X2X9XdX X` _ ) _ t $                                 ",
"                          $ + 8 5.&X<X<X<X2X<X<X1X<X1X0X,XZ.C.V.V.V.V.V.A.3X0XwXdXwXV.V.V.B./ $                                 ",
"                            O y 6.A.,X1X1X<X1X<X<X<X3XrXeXeX8X>X>X>X:X:X3XeXdXgXgXrX>X:X,X=X] #                                 ",
"                            O y 6.-X2X1X<X<X<X<X1X,X3XeXgXgXrX2X<X<X2X<X1X4X4X;X;X4X2X2X9XwX{ #                                 ",
"          6 6 7 6 >         + y 4.V.,X<X<X<X1X<X<X<X3XeXgXdXwX<X<X3X3XwX,XZ.Z.Z.C.-X<X<XwXqX+.#                                 ",
"        ! 0.z.z.4./ & o         f <.C.>X2X<X<X<X<X<X,XwXwXwX3X<X<XeXjXjXjXhXfXfXfXeX2X5X|.] J           + O O O                 ",
"      O ! =X9X,XS.` 3 G S       . K m.A.:X<X2X<X<X<X<X<X<X,X<X,X=X;XaX#XiX#XaXiXiX6X=X2Xz.>           f d ! ! !                 ",
"      O ! -X0X>XV.] V R.~.6 $ = * Q m.B.Z.4X1X1X1X1X1X<X4X4X2X>XC.{ u e e w y w w ] M.:Xz.e         6 2.c.-X=Xx.u .             ",
"      + ! =X9X>XS.{ V W X.o.O.o.o.!.}.}.}.#XqXsXsXsXqXsXsXsXsXqX7X}.O.w X . X = ~ !.}.#X}.o.J = . F O.w.S.2X9X%Xu .             ",
"      O ! x.;X*Xz.^ C b Y _.'.'.'.'.).)._.'.@XtXtXtXtXtXtXtXtXtXtXaXaX..6 y y ! '..X).'.'.'.F $ e } ).z.S.>X9XZ.u .             ",
"          f !.OX} C N M V U U U U U U U U U P.I.I.I.I.I.I.I.I.I.I.].aX|.5.6.5.w.XXE.U U U U - Z ~.T.R 9.S.1X9XZ.u .             ",
"          O ~ X.X.Y N M b b b b b m b b b b P I F.F.F.F.F.F.F.F.G.`.aXl.<.1.<.9.XXT.b b b b F } X.E N ^ q. Xz.{ u               ",
"            o w Q.T.C B V M m m N m m N m N P H.H.H.H.H.H.H.H.H.L.[.iX{ s s s K OX~.H m M H R.'.U V V C E ).} :                 ",
"                S Z 3 o.W.V b m m N m m b N P K.H.H.H.H.H.H.F.P.].aXiXr.#.%.$.:.{.].E.U U R.oX'.U Y R.D 3 S Z                   ",
"                o o > o.T.E V b b N b N N N P H.H.H.H.H.H.H.I.^.yXtXiXr.=.,.=.-.7.OX.XW W .X+X'.X.X.O.S o o                     ",
"                      * ~ ).X.N N N N m m N P H.H.H.H.H.H.K.].yXU.[.pX8.*.$.$.@.@.7.'.W Y .X+XoX'.o.e                           ",
"                        w } o.W.V N N m b N P H.H.H.H.F.F.H.U.`.].$Xu.:.%.&.-.-.#.8.'.W B W.Q..Xo.S                             ",
"                          %  .~.U b M N N N P K.H.H.H.Y.Y.K.L.^.yXu.=.=.,.,.,.,.=.r.!.W.V N R.Q.w .                             ",
"                            w Z m M M N m N P H.H.F.L.].].P.`.pX7.@.#.$.$.%.$.$.$.*.) !.T.V T.).G o                             ",
"                              $ 3 b N b b b B P H.F.L.`.].[.$Xu.:.#.&.y.b.y.y.y.:.#.$.(._.V R  .w                               ",
"                                $ - m V V D B B I K.L.P.^.pXu.=.,.,.,.n.D.D.D.D.i.=.-.(._.U 3 *                                 ",
"                                  ; Z ~.yX@XX.b B U.yXyXOX7.&.#.-.:.t.k.h.v h.k.;.#.$./.oXE.U 3 *                               ",
"                                    0 O.XXXX~.W.X.~.XXXXq.k p k p p @.g.g.x f.j.@.p j /.oXQ.T n =                               ",
"                                    % 5 q w !.uXuXQ.w 0 0 = : : < < 8 f.j.j.j.g.j $ 6 Q.Q.w $ *                                 ",
"                                            ^ O.+.^ , > > , , , 1 , 1 x c c c x 9 : 6 ~ ~                                       ",
"                                            o % y s a a t t a a r a r < & & & > t a r : #                                       ",
"                                            # & 8 a a r t t a t a a t r 8 r 8 r r a r : @                                       ",
"                                            $ % 8 a a t a a 8 6 1 1 8 , , 1 r a a a r 1 >                                       ",
"                                            $ % 8 a a a t r , $ @ * $ $ $ = , r a a a r 8 &                                     ",
"                                            # % 8 a a a 8 > :               * , 8 a a a 8 $                                     ",
"                                            $ : 8 a a 8 , $                 $ & 8 a a a 8 &                                     ",
"                                            # : r a t < $                   # : 8 a a a 8 &                                     ",
"                                              & > > , <                       % > 8 t a 8 $                                     ",
"                                                $ $ $                           # , t a 8 &                                     "
};
