/* XPM */
static char *result[] = {
/* columns rows colors chars-per-pixel */
"64 64 177 2 ",
"   c #0F071E",
".  c #110C1E",
"X  c #140C22",
"o  c #171124",
"O  c #181224",
"+  c #131926",
"@  c #1A1B26",
"#  c #171B2A",
"$  c #181D2B",
"%  c #221E2E",
"&  c #1B242C",
"*  c #1F2B2C",
"=  c #182530",
"-  c #192C34",
";  c #172F38",
":  c #173237",
">  c #1F3431",
",  c #13373A",
"<  c #193339",
"1  c #163B3D",
"2  c #193C3E",
"3  c #1F3C35",
"4  c #212E2A",
"5  c #24322C",
"6  c #273A2C",
"7  c #293E2D",
"8  c #273532",
"9  c #203E36",
"0  c #2B3B31",
"q  c #343D3C",
"w  c #272333",
"e  c #1B423F",
"r  c #1C493E",
"t  c #2A402E",
"y  c #20453A",
"u  c #224A3B",
"i  c #274034",
"p  c #35403D",
"a  c #38413F",
"s  c #26543D",
"d  c #2B5A3C",
"f  c #235B3F",
"g  c #26633F",
"h  c #2E633E",
"j  c #346D3E",
"k  c #31673E",
"l  c #3E7538",
"z  c #3E7337",
"x  c #437B3B",
"c  c #193E40",
"v  c #223D43",
"b  c #353D4B",
"n  c #433E4C",
"m  c #413F50",
"M  c #1C4440",
"N  c #1F4A40",
"B  c #264145",
"V  c #214E41",
"C  c #284347",
"Z  c #394340",
"A  c #344940",
"S  c #235441",
"D  c #265C42",
"F  c #285E42",
"G  c #2D5D4B",
"H  c #295641",
"J  c #325E4E",
"K  c #385A59",
"L  c #276142",
"P  c #2A6543",
"I  c #2D6A44",
"U  c #306F44",
"Y  c #376D4B",
"T  c #2F7142",
"R  c #327444",
"E  c #367C45",
"W  c #387F46",
"Q  c #3B6455",
"!  c #3D6B54",
"~  c #3C7251",
"^  c #464251",
"/  c #444A54",
"(  c #4C4958",
")  c #514D5A",
"_  c #486647",
"`  c #486648",
"'  c #4A6949",
"]  c #476447",
"[  c #477C4D",
"{  c #4E6551",
"}  c #406D5E",
"|  c #427C53",
" . c #467E58",
".. c #497F58",
"X. c #467A57",
"o. c #425F64",
"O. c #456364",
"+. c #526D6F",
"@. c #4E7867",
"#. c #378045",
"$. c #3A8346",
"%. c #3E8A47",
"&. c #3E864A",
"*. c #3D8B48",
"=. c #438E4B",
"-. c #469346",
";. c #43914B",
":. c #4B9C48",
">. c #519E42",
",. c #498656",
"<. c #4E9854",
"1. c #519B56",
"2. c #549A5B",
"3. c #4EA249",
"4. c #53A144",
"5. c #53AD49",
"6. c #57A15B",
"7. c #58A25C",
"8. c #5EA251",
"9. c #66AF58",
"0. c #66AE57",
"q. c #65B35B",
"w. c #68B25A",
"e. c #65B959",
"r. c #57806E",
"t. c #528460",
"y. c #5A9763",
"u. c #5B8471",
"i. c #6C8D69",
"p. c #6B9A6C",
"a. c #709F6D",
"s. c #6A9F71",
"d. c #62A464",
"f. c #78AC6F",
"g. c #6EA773",
"h. c #77AB73",
"j. c #79AC74",
"k. c #75A374",
"l. c #75B574",
"z. c #7ABC76",
"x. c #67B166",
"c. c #76D260",
"v. c #7CD46A",
"b. c #78D561",
"n. c #7BC177",
"m. c #7ACE69",
"M. c #82AE7B",
"N. c #87B97D",
"B. c #88BB7E",
"V. c #85CA7C",
"C. c #80C07A",
"Z. c #88D27C",
"A. c #778693",
"S. c #7B9599",
"D. c #83BA82",
"F. c #81B581",
"G. c #9DA5A9",
"H. c #9BADBA",
"J. c #A4A5AB",
"K. c #A0B3AE",
"L. c #A5ABB5",
"P. c #87C183",
"I. c #88C384",
"U. c #8CCC85",
"Y. c #8ED186",
"T. c #91D284",
"R. c #96DE86",
"E. c #98DF87",
"W. c #A9BCC0",
"Q. c #BEBEC6",
"!. c #C1CFCD",
"~. c #CCCACE",
"^. c #CED6D7",
"/. c #CFDBD5",
"(. c #DAE2EF",
"). c #FDFEFF",
"_. c None",
/* pixels */
"_._._._._._._._._._._._._._._._._._._._._._._._._._._._._._._._._._._._._._._._._._._._._._._._._._._._._._._._._._._._._._._._.",
"_._._._._._._._._._._._._._._._._._._._._._._._._._._._._._._._._._._._._._._._._._._._._._._._._._._._._._._._._._._._._._._._.",
"_._._._._._._._._._._._._._._._._._._._._._._._.X X O O O O O O O O O O O O O O _._._._._._._._._._._._._._._._._._._._._._._._.",
"_._._._._._._._._._._._._._._._._._._._._._._._.Z p 8 4 4 * & & & & & & & & $ $ _._._._._._._._._._._._._._._._._._._._._._._._.",
"_._._._._._._._._._._._._._._._._._.X X X X X p i.k.[ j j h s u u u u u u y 2 - $ o _._._._._._._._._._._._._._._._._._._._._._.",
"_._._._._._._._._._._._._._._._._._.p Z a Z p { h.n.1.%.*.#.R P I P L D D D V 2 & $ _._._._._._._._._._._._._._._._._._._._._._.",
"_._._._._._._._._._._._._._._._.  q i.M.M.M.j.h.d.<.;.%.%.%.#.#.W R P D D D S u 1 - $ O _._._._._._._._._._._._._._._._._._._._.",
"_._._._._._._._._._._._._._._._.q ' h.Y.Y.Y.Y.z.<.%.%.%.%.%.*.*.*.$.R P P P L S N 2 & $ _._._._._._._._._._._._._._._._._._._._.",
"_._._._._._._._._._._._._._.  q i.h.d.6.6.6.6.1.=.%.%.*.%.%.%.=.*.&.#.E W R P D S r 2 - $ O _._._._._._._._._._._._._._._._._._.",
"_._._._._._._._._._._._._._.q { h.n.1.$.#.#.E #.E W W $.W W W W &.*.*.*.%.W I D F S u 2 & $ _._._._._._._._._._._._._._._._._._.",
"_._._._._._._._._._._._.  q i.j.d.1.=.#.T P P P P I P P P P P U $.%.%.%.%.W P F D D D V 2 - @ O _._._._._._._._._._._._._._._._.",
"_._._._._._._._._._._._.q { j.z.1.$.#.R F V f V S S s S S S S D R $.%.%.%.$.U P F D D D u 1 $ O _._._._._._._._._._._._._._._._.",
"_._._._._._._._._._.X q i.h.d.1.;.#.T F V c M M e M M M c M M V F R $.*.%.%.#.R L D D D S e & O _._._._._._._._._._._._._._._._.",
"_._._._._._._._._._.X Z M.Y.6.$.#.T D N 2 1 c 2 1 1 2 2 1 c 1 2 r D R #.$.%.%.W P D D F L u - $ _._._._._._._._._._._._._._._._.",
"_._._._._._._._._._.X Z M.Y.6.#.T F N 1 , 1 2 2 1 1 1 c c c 1 1 1 N F T $.*.*.W P D F F F s 2 - $ O _._._._._._._._._._._._._._.",
"_._._._._._._._._._.q ' h.z.1.E L G K o.o.K v C o.O.C : ; v K o.O.K G L E *.=.#.U L F D F S M < $ O _._._._._._._._._._._._._._.",
"_._._._._._._._.o p i.j.d.<.*.#.g ! S.H.H.A.b / J.K.( + + b A.H.H.S.~ g R %.%.%.$.R L D F S M < $ O _._._._._._._._._._._._._._.",
"_._._._._._._._.. p g.z.<.%.%.#.P @.W.(.(.H.b n G.J.^ . . ^ J.(.(.W.@.g E %.%.%.*.$.P D D D M < = $ _._._._._._._._._._._._._._.",
"_._._._._._._._.o 8 [ 6.;.%.%.j P r.!.).).Q.( % ^ ^ w . . ( !.).).!.r.L l *.%.%.*.$.P F D S M 2 2 - $ O _._._._._._._._._._._._.",
"_._._._._._._._.o 4 j *.%.%.%.E L u./.).).~.) . . o O o . ) ~.).)./.r.g #.*.%.*.*.E P D F S M c c < $ O _._._._._._._._._._._._.",
"_._._._._._._._.O * j *.*.%.*.E g u./.).).~.) . . o O o . ) ~.).)./.u.L E %.%.*.*.$.P F F S M 2 c < $ O _._._._._._._._._._._._.",
"_._._._._._._._.O 4 h $.%.%.%.E h @.K.^.^.G./ + + & $ + + / G.^.^.K.@.L E %.%.$.$.R L D S V M 2 c < $ O _._._._._._._._._._._._.",
"_._._._._._._._.o & s R $.%.*.E h G } +.+.o.B : < < < : : B O.+.+.O.P P E %.%.$.I P F S N e c c c < $ O _._._._._._._._._._._._.",
"_._._._._._._._.o & 3 s R $.$.$.I F r , , , 1 1 1 2 1 2 2 1 , , , r D U $.%.%.W I D F S M c 2 1 c < $ O _._._._._._._._._._._._.",
"_._._._._._._._._._.& > f R $.%.$.R f r 1 , 1 1 c 1 1 1 < , , , r f T $.%.*.*.#.I D F S M 1 2 c 2 < $ O _._._._._._._._._._._._.",
"_._._._._._._._._._.X & u I E *.%.*.| | ! { Q Q Q Q Q Q } Q Q ! X.,.2.<.&.R #.R L D D S M c c 2 M < $ O _._._._._._._._._._._._.",
"_._._._._._._._._._.O & u P $.*.$.<.l.P.D.D.D.D.D.D.D.D.D.D.D.D.P.U.U.l.| L I P D D F S M c 2 c c < $ O _._._._._._._._._._._._.",
"_._._._._._._._._._.O & u P R *.<.d.h.B.T.T.D.M.M.N.T.T.N.N.T.T.N.M.M.k.t.~ F f D D F S M 2 c 2 c < & O _._._._._._._._._._._._.",
"_._._._._._._._._._.O & u F F ~ l.j.{ _ 0.9.' q Z ' w.9.` ` 9.w.` Z Z { h.h.~ f D D F S M 2 c 2 c : $ O _._._._._._._._._._._._.",
"_._._._._._._._._._.O & 9 H Y y.V.f.q 6 >.4.6 X X 7 4.>.6 6 >.4.7 X   p f.V.y.Y L F D S M c 2 c c < $ O _._._._._._._._._._._._.",
"_._._._._._._._._._._._.& A p.V.v.1.0 7 >.4.t X X 0 4.4.6 7 >.4.t X X 0 8.v.V.g.~ D D S M c c 2 c : $ O _._._._._._._._._._._._.",
"_._._._._._._._._._._._.. Z M.T.0.z 5 5 x x 6 o X 5 x x 8 5 x x 5 X O 5 l 0.T.P.X.f D S N e 2 2 c < & O _._._._._._._._._._._._.",
"_._._._._._._._._._._._.O Z M.C._ 4 @ @ 5 5 @ o . @ 5 6 % @ 5 5 & O O @ 4 ] B.I. .D D D D N r c c : $ O _._._._._._._._._._._._.",
"_._._._._._._._._._._._.o Z M.B._ 4 O @ 5 5 @ @ 6 5 % . . @ 5 5 @ X O O * _ B.I. .D S D D S N M c ; $ O _._._._._._._._._._._._.",
"_._._._._._._._._._._._.X Z M.T.9.z 4 4 x x 5 5 x x 5 . . 5 x x 5 X X 4 l 9.T.I. .S D D D D S V M < $ O _._._._._._._._._._._._.",
"_._._._._._._._._._._._.o p a.Z.v.0.] _ 0.9.` _ 9.9.' a a ' 9.9.' Z q ` 9.m.z.g.~ D D D D L F S M , $ O _._._._._._._._._._._._.",
"_._._._._._._._._._._._.X 8 [ x.Z.T.N.N.T.T.B.N.T.T.B.M.M.B.T.U.N.j.M.N.T.C.t.J D D D D D D D S M < $ O _._._._._._._._._._._._.",
"_._._._._._._._._._._._.O 4 d ,.n.R.R.T.D.N.D.P.T.T.D.D.D.P.T.R.R.R.R.R.E.l.! r D D D D D D D D M : $ O _._._._._._._._._._._._.",
"_._._._._._._._._._._._.O @ 9 Y q.b.b.w...K Q ..w.w.,.K K ,.w.c.c.c.c.c.c.e.=.U L D D D D D D S M : $ O _._._._._._._._._._._._.",
"_._._._._._._._._._._._.O @ 2 I -.5.5.-.P r y P :.:.R s e D -.5.5.5.5.5.5.3.-.W P D D D D D D S N < $ O _._._._._._._._._._._._.",
"_._._._._._._._._._._._.O 4 d R R R R R R R R R R $.:.-.I S k R R R R R R R %.W P D D D D F D S M ; $ O _._._._._._._._._._._._.",
"_._._._._._._._._._._._.O * j W R g L U $.=.*.#.U R :.:.E P P P F P P P h R #.$.I D D D D F D S M < = $ _._._._._._._._._._._._.",
"_._._._._._._._._._._._.O 4 U =.$.E E E %.%.*.%.W E E R E E E E E E E E R #.%.W P D D D F F F S M c < ; $ O _._._._._._._._._._.",
"_._._._._._._._._._._._.o - h W %.%.%.%.W W %.%.%.W U U W =.=.%.=.%.%.=.%.%.%.E P D D D S S D S V M M < $ O _._._._._._._._._._.",
"_._._._._._._._._._._._.O @ 2 F W *.%.$.I R #.=.%.$.W W $.%.%.%.%.%.%.%.%.%.%.E P D F S V r S F S V M < $ O _._._._._._._._._._.",
"_._._._._._._._._._._._.O $ < V R *.%.E P L R R $.%.%.%.%.%.%.%.%.$.$.%.%.%.=.W I D S V M e V S S S V 1 & $ _._._._._._._._._._.",
"_._._._._._._._._._._._.O $ - S E %.%.E P S s D E =.%.=.%.%.%.%.%.$.%.=.%.%.%.W P S V e 2 2 M M M N V u 1 - $ O _._._._._._._._.",
"_._._._._._._._._._._._.$ = < S R %.%.$.I S 2 V R %.W E E R $.%.%.%.%.$.W E W R P s M e c 2 c 2 c M V S N 2 & $ _._._._._._._._.",
"_._._._._._._._._._.O $ - < 1 V R =.%.W P s e V R $.R F S F E %.%.%.&.W U P P P F D S V c c c c 2 c M M S V 2 - $ O _._._._._._.",
"_._._._._._._._._._.+ = 1 c V F E %.%.W P S e V E W P S 2 V R =.%.%.%.W U L F D D F F S V c c c c 2 2 M V S N 1 $ O _._._._._._.",
"_._._._._._._._.O $ - < c V P E $.%.=.$.P S e V R $.I S M V R =.%.%.%.%.$.R L D D D F D S V c c c 2 c 2 M M S y & o _._._._._._.",
"_._._._._._._._.$ = < M V H E =.%.%.$.R P S e V R $.P V M y I R E $.%.%.*.$.U L F D D D F S V M 2 c 2 c c M S y * $ _._._._._._.",
"_._._._._._.o $ - < 1 V P R %.=.=.$.U L D S M V E W P S e 2 V S L U $.%.%.%.$.R L D D F D D S V M 2 2 c 2 c M 2 2 - $ O _._._._.",
"_._._._._._.$ = < c V F E =.%.$.$.R L D S V c V R $.R F S u c c V F R $.$.=.%.$.I P F D D D F S N M c 2 c 2 2 c c < $ O _._._._.",
"_._._._.O $ - < c V P W %.%.%.$.R L F S V 2 2 V R %.$.W E I N c e V F U W *.%.%.$.R L D D D D D S V M 2 2 c 2 2 c < $ O _._._._.",
"_._._._.$ & , M V F E %.%.%.$.R P D S V M 2 V d W =.$.W $.R F M 2 2 V F R W %.*.*.$.R P I P L D D S V e c 2 c 2 c < $ O _._._._.",
"_._.O $ - < c N P E $.*.*.$.T P F S V c 2 V I E &.W R P P I R I N 2 e V F R $.*.*.*.$.W $.R P D D D S V M 2 2 2 c < $ O _._._._.",
"_._.O $ 2 M M S R W $.#.$.R s u u y c M V F E =.$.E L D F P E E F M 2 < u F R W W W W W $.R P D D D D D V M M c c < = & _._._._.",
"_._.o & y S D D P I I I P d > & & - 1 V P W =.$.R L F D F F P U E h 8 = 2 u F I I I I I I P L D L D F F S V e c c 2 < - $ O _._.",
"_._.O & y u u u B u u u u 9 $ O o # = y h U j h s u u u y V u s k d & + - 2 e u u u y u u u u u u u u u u y 2 < < < < - $ O _._.",
"_._._._.& * & & & & & = & & O O O O $ & - 4 8 * & & & & = & & & * 4 @ O $ @ & & & & & & & & & & = & & * & = $ $ & $ $ & O O _._.",
"_._._._.O O O O O O O O O O O O O O O O O O X O O O O O O O O O O O O O o o O O O O O O O O O O O O O O O O O O O O O O O O _._.",
"_._._._._._._._._._._._._._._._._._._._._._._._._._._._._._._._._._._._._._._._._._._._._._._._._._._._._._._._._._._._._._._._.",
"_._._._._._._._._._._._._._._._._._._._._._._._._._._._._._._._._._._._._._._._._._._._._._._._._._._._._._._._._._._._._._._._."
};
