/* XPM */
static char *result[] = {
/* columns rows colors chars-per-pixel */
"64 64 170 2 ",
"   c #0F071E",
".  c #10051F",
"X  c #110B1E",
"o  c #140E22",
"O  c #171124",
"+  c #181324",
"@  c #131926",
"#  c #171C2A",
"$  c #181D2B",
"%  c #191826",
"&  c #221C2D",
"*  c #1B242C",
"=  c #1F2C2D",
"-  c #192530",
";  c #192B34",
":  c #172F38",
">  c #163136",
",  c #193339",
"<  c #163B3C",
"1  c #193C3E",
"2  c #1C3534",
"3  c #202F2D",
"4  c #22322C",
"5  c #28372E",
"6  c #273C2B",
"7  c #273532",
"8  c #213D35",
"9  c #343C3B",
"0  c #272232",
"q  c #1B413F",
"w  c #1D4A3E",
"e  c #20453B",
"r  c #224A3B",
"t  c #214036",
"y  c #35403D",
"u  c #38423F",
"i  c #26543D",
"p  c #2B5B3D",
"a  c #27643F",
"s  c #2F633D",
"d  c #30643E",
"f  c #336B3E",
"g  c #193E40",
"h  c #223D43",
"j  c #353D4B",
"k  c #433E4C",
"l  c #423F50",
"z  c #1C4440",
"x  c #1F4B40",
"c  c #274146",
"v  c #214E41",
"b  c #284347",
"n  c #394240",
"m  c #304C47",
"M  c #235441",
"N  c #265C42",
"B  c #285E42",
"V  c #2D5D4B",
"C  c #345F4F",
"Z  c #38585B",
"A  c #276341",
"S  c #2A6543",
"D  c #2D6943",
"F  c #306F44",
"G  c #37674F",
"H  c #327345",
"J  c #367D45",
"K  c #387F46",
"L  c #377748",
"P  c #3A6254",
"I  c #3D6D53",
"U  c #3C7351",
"Y  c #464351",
"T  c #444A55",
"R  c #4E4A58",
"E  c #476447",
"W  c #476448",
"Q  c #486548",
"!  c #496949",
"~  c #487D4E",
"^  c #467B4C",
"/  c #4D6551",
"(  c #406D5E",
")  c #417C52",
"_  c #497F57",
"`  c #427657",
"'  c #435F64",
"]  c #456364",
"[  c #4C7764",
"{  c #507A6B",
"}  c #536E70",
"|  c #4C963F",
" . c #3A8346",
".. c #3D8A47",
"X. c #3E8C48",
"o. c #3E864A",
"O. c #428E4B",
"+. c #4D9640",
"@. c #4F9A41",
"#. c #439249",
"$. c #499C49",
"%. c #469949",
"&. c #509D41",
"*. c #5A9C4E",
"=. c #4A8158",
"-. c #4F9955",
";. c #519B56",
":. c #579F5B",
">. c #50A64A",
",. c #54AC49",
"<. c #5CBC4C",
"1. c #57B34B",
"2. c #57A15B",
"3. c #58A15C",
"4. c #4FA54A",
"5. c #64AA56",
"6. c #66AE58",
"7. c #67B55C",
"8. c #67B75A",
"9. c #528360",
"0. c #58816F",
"q. c #5B9864",
"w. c #6C8D69",
"e. c #6F9E6C",
"r. c #709F6D",
"t. c #62A464",
"y. c #76A76C",
"u. c #6DA473",
"i. c #76AA73",
"p. c #79AC74",
"a. c #74A173",
"s. c #78BC75",
"d. c #7FBF79",
"f. c #74B474",
"g. c #69B467",
"h. c #64CC4C",
"j. c #79CC68",
"k. c #76D361",
"l. c #7CD26A",
"z. c #7BC177",
"x. c #82AD7B",
"c. c #87B97D",
"v. c #88BA7E",
"b. c #86B77D",
"n. c #83C67C",
"m. c #8AD37D",
"M. c #778693",
"N. c #7B9599",
"B. c #81B681",
"V. c #83BA82",
"C. c #A29FA6",
"Z. c #9EA6A9",
"A. c #9BADBA",
"S. c #A5A7AC",
"D. c #A1B4AF",
"F. c #A7ADB7",
"G. c #87C082",
"H. c #8CCD84",
"J. c #89C484",
"K. c #90CF82",
"L. c #8ED186",
"P. c #91D284",
"I. c #96DC85",
"U. c #ACBEC2",
"Y. c #C2C2C9",
"T. c #CFD7D7",
"R. c #C5D3D0",
"E. c #DEE5F2",
"W. c white",
"Q. c None",
/* pixels */
"Q.Q.Q.Q.Q.Q.Q.Q.Q.Q.Q.Q.Q.Q.Q.Q.Q.Q.Q.Q.Q.Q.Q.Q.Q.Q.Q.Q.Q.Q.Q.Q.Q.Q.Q.Q.Q.Q.Q.Q.Q.Q.Q.Q.Q.Q.Q.Q.Q.Q.Q.Q.Q.Q.Q.Q.Q.Q.Q.Q.Q.Q.Q.Q.",
"Q.Q.Q.Q.Q.Q.Q.Q.Q.Q.Q.Q.Q.Q.Q.Q.Q.Q.Q.Q.Q.Q.Q.Q.Q.Q.Q.Q.Q.Q.Q.Q.Q.Q.Q.Q.Q.Q.Q.Q.Q.Q.Q.Q.Q.Q.Q.Q.Q.Q.Q.Q.Q.Q.Q.Q.Q.Q.Q.Q.Q.Q.Q.Q.",
"Q.Q.Q.Q.Q.Q.Q.Q.Q.Q.Q.Q.Q.Q.Q.Q.Q.Q.Q.Q.Q.Q.Q.Q.o o + + O O o + + + + + O O + + Q.Q.Q.Q.Q.Q.Q.Q.Q.Q.Q.Q.Q.Q.Q.Q.Q.Q.Q.Q.Q.Q.Q.Q.",
"Q.Q.Q.Q.Q.Q.Q.Q.Q.Q.Q.Q.Q.Q.Q.Q.Q.Q.Q.Q.Q.Q.Q.Q.u 9 7 3 4 4 * * * * * * * * * $ Q.Q.Q.Q.Q.Q.Q.Q.Q.Q.Q.Q.Q.Q.Q.Q.Q.Q.Q.Q.Q.Q.Q.Q.",
"Q.Q.Q.Q.Q.Q.Q.Q.Q.Q.Q.Q.Q.Q.Q.Q.Q.Q.o o + X . 9 w.a.=.f f s i r r r r r r e , ; $ + Q.Q.Q.Q.Q.Q.Q.Q.Q.Q.Q.Q.Q.Q.Q.Q.Q.Q.Q.Q.Q.Q.",
"Q.Q.Q.Q.Q.Q.Q.Q.Q.Q.Q.Q.Q.Q.Q.Q.Q.Q.u n u u u / p.z.;...X.J H a D D S D A M v 1 * $ Q.Q.Q.Q.Q.Q.Q.Q.Q.Q.Q.Q.Q.Q.Q.Q.Q.Q.Q.Q.Q.Q.",
"Q.Q.Q.Q.Q.Q.Q.Q.Q.Q.Q.Q.Q.Q.Q.Q.. 9 w.x.x.x.x.i.t.-.#..... . . .K K K H S N N v 1 ; # + Q.Q.Q.Q.Q.Q.Q.Q.Q.Q.Q.Q.Q.Q.Q.Q.Q.Q.Q.Q.",
"Q.Q.Q.Q.Q.Q.Q.Q.Q.Q.Q.Q.Q.Q.Q.Q.9 ! p.L.L.L.L.s.-. ................... .F S B M v , - $ Q.Q.Q.Q.Q.Q.Q.Q.Q.Q.Q.Q.Q.Q.Q.Q.Q.Q.Q.Q.",
"Q.Q.Q.Q.Q.Q.Q.Q.Q.Q.Q.Q.Q.Q.  9 w.p.t.2.2.2.2.$.#. ...................o. .H S N M v 1 ; $ + Q.Q.Q.Q.Q.Q.Q.Q.Q.Q.Q.Q.Q.Q.Q.Q.Q.Q.",
"Q.Q.Q.Q.Q.Q.Q.Q.Q.Q.Q.Q.Q.Q.9 / p.z.;. .................................X. .F S A M v 1 * % Q.Q.Q.Q.Q.Q.Q.Q.Q.Q.Q.Q.Q.Q.Q.Q.Q.Q.",
"Q.Q.Q.Q.Q.Q.Q.Q.Q.Q.Q.Q.. 9 w.p.t.-.#. ........................... ....... . .H S N M v 1 ; # + Q.Q.Q.Q.Q.Q.Q.Q.Q.Q.Q.Q.Q.Q.Q.Q.",
"Q.Q.Q.Q.Q.Q.Q.Q.Q.Q.Q.Q.9 / p.z.-. ... .J J J J K K K K K K K  .............X.K A N B M v , $ + Q.Q.Q.Q.Q.Q.Q.Q.Q.Q.Q.Q.Q.Q.Q.Q.",
"Q.Q.Q.Q.Q.Q.Q.Q.Q.Q.O u w.p.t.;.O. .X. .F D D A D S S D D A D F  .............K D N N N M e * + Q.Q.Q.Q.Q.Q.Q.Q.Q.Q.Q.Q.Q.Q.Q.Q.",
"Q.Q.Q.Q.Q.Q.Q.Q.Q.Q.. n x.L.2. ... . .H N M M M M M M M M v M N H  ..... ..... .F A B N B r ; # Q.Q.Q.Q.Q.Q.Q.Q.Q.Q.Q.Q.Q.Q.Q.Q.",
"Q.Q.Q.Q.Q.Q.Q.Q.Q.Q.. u x.L.2. ... .F B x z g z z z z z g g z x B F  ......... . .L A N B M 1 ; $ + Q.Q.Q.Q.Q.Q.Q.Q.Q.Q.Q.Q.Q.Q.",
"Q.Q.Q.Q.Q.Q.Q.Q.Q.Q.u ! i.z.-... .H N w 1 < g g < < g g g g g g x N H  ...........K D N B M z , $ + Q.Q.Q.Q.Q.Q.Q.Q.Q.Q.Q.Q.Q.Q.",
"Q.Q.Q.Q.Q.Q.Q.Q.X u w.p.t.-.X. .F a w < < < < < , < 1 g g 1 g : < w N H  .........K D N N M z , $ + Q.Q.Q.Q.Q.Q.Q.Q.Q.Q.Q.Q.Q.Q.",
"Q.Q.Q.Q.Q.Q.Q.Q.O y u.z.;. ... .A V Z ] ] Z h h ] ] b > > h Z ' ] Z V S J ........J S N N N z , - $ Q.Q.Q.Q.Q.Q.Q.Q.Q.Q.Q.Q.Q.Q.",
"Q.Q.Q.Q.Q.Q.Q.Q.o 5 ^ 2.#..... .a ( N.A.A.M.j T S.D.R @ @ n M.A.A.N.I A J ......O.J D N N M z 1 1 ; $ + Q.Q.Q.Q.Q.Q.Q.Q.Q.Q.Q.Q.",
"Q.Q.Q.Q.Q.Q.Q.Q.o 3 f ..X.....f a { U.E.E.F.l k C.S.Y X . Y U.E.E.U.{ a J ........K D N N M z 1 g , $ + Q.Q.Q.Q.Q.Q.Q.Q.Q.Q.Q.Q.",
"Q.Q.Q.Q.Q.Q.Q.Q.O 3 f X...X. .J a 0.R.W.W.U.R 0 j Y 0 X X R Y.W.W.R.0.a J ........K A N N M z g g , $ + Q.Q.Q.Q.Q.Q.Q.Q.Q.Q.Q.Q.",
"Q.Q.Q.Q.Q.Q.Q.Q.O 4 s  . ...X.J a [ D.T.T.Z.T + @ @ $ # @ Y Z.T.T.D.[ A J ...... .L A N N N q 1 g , $ + Q.Q.Q.Q.Q.Q.Q.Q.Q.Q.Q.Q.",
"Q.Q.Q.Q.Q.Q.Q.Q.O * i H ..X.X.K A G ] } } ' h , > > > > , c ' } } ] V A J ....K F S B B N M z g g , # + Q.Q.Q.Q.Q.Q.Q.Q.Q.Q.Q.Q.",
"Q.Q.Q.Q.Q.Q.Q.Q.+ * < p f  . . .F i w < < , g g g g g g z < < < < w N H K O...K S N N N N M z 1 g , $ + Q.Q.Q.Q.Q.Q.Q.Q.Q.Q.Q.Q.",
"Q.Q.Q.Q.Q.Q.Q.Q.Q.Q.* 2 i H  ... .H N w < < < g 1 g 1 g 1 g < < w p H  .......J S N N N B M z 1 g , $ + Q.Q.Q.Q.Q.Q.Q.Q.Q.Q.Q.Q.",
"Q.Q.Q.Q.Q.Q.Q.Q.Q.Q.+ * e D K ..X. .F N x z z z z z z z z z z x A H  ......... .S N N N M v z g g , $ + Q.Q.Q.Q.Q.Q.Q.Q.Q.Q.Q.Q.",
"Q.Q.Q.Q.Q.Q.Q.Q.Q.Q.+ * r D J ...... .H B i M M M M M M M M i a H  ...........K D B B M v z 1 1 g , * + Q.Q.Q.Q.Q.Q.Q.Q.Q.Q.Q.Q.",
"Q.Q.Q.Q.Q.Q.Q.Q.Q.Q.+ * r d J ........ .F S S A A D A A D A A D  . . ....... .H A N N M q 1 1 g g > $ + Q.Q.Q.Q.Q.Q.Q.Q.Q.Q.Q.Q.",
"Q.Q.Q.Q.Q.Q.Q.Q.Q.Q.+ * r D J O....... . .J J J K J J J J f J  . ... ..... .F A B N N M z g 1 g g , $ + Q.Q.Q.Q.Q.Q.Q.Q.Q.Q.Q.Q.",
"Q.Q.Q.Q.Q.Q.Q.Q.Q.Q.+ * 1 p J ....X.;.3.:.:.:.:.2.2.:.:.2.2.2.2.:.2.3.;. .H A N N N N M z 1 g 1 g , * + Q.Q.Q.Q.Q.Q.Q.Q.Q.Q.Q.Q.",
"Q.Q.Q.Q.Q.Q.Q.Q.Q.Q.Q.Q.* 6 H O. .-.s.H.H.H.n.H.H.H.H.H.L.H.H.H.H.H.P.f.U N N N N N B M z 1 g 1 z > $ + Q.Q.Q.Q.Q.Q.Q.Q.Q.Q.Q.Q.",
"Q.Q.Q.Q.Q.Q.Q.Q.Q.Q.Q.Q.X 3 f O.-.t.i.c.H.I.I.K.c.c.H.P.n.x.x.c.m.L.V.i.9.U B N N N N M z 1 1 1 g , $ + Q.Q.Q.Q.Q.Q.Q.Q.Q.Q.Q.Q.",
"Q.Q.Q.Q.Q.Q.Q.Q.Q.Q.Q.Q.O * f -.c.y./ E 5.k.k.6.E E 6.6.! u u ! 6.6.E Q a.i.U i N N N M z g 1 g g , $ + Q.Q.Q.Q.Q.Q.Q.Q.Q.Q.Q.Q.",
"Q.Q.Q.Q.Q.Q.Q.Q.Q.Q.Q.Q.O 7 ^ g.m.y.9 4 | h.h.&.4 5 &.&.6 . . 5 &.&.4 9 y.n.q.U S N N M z g 1 g g , $ + Q.Q.Q.Q.Q.Q.Q.Q.Q.Q.Q.Q.",
"Q.Q.Q.Q.Q.Q.Q.Q.Q.Q.Q.Q.O y e.m.l.*.5 4 | h.h.| 4 6 &.&.6 . o 5 &.| 5 5 *.l.n.i.U N N M z 1 g 1 1 , $ + Q.Q.Q.Q.Q.Q.Q.Q.Q.Q.Q.Q.",
"Q.Q.Q.Q.Q.Q.Q.Q.Q.Q.Q.Q.X 9 w.n.j.5.Q Q 5.k.k.6.E E 6.7.! 9 n ! 6.6.! ! 6.j.z.u.U M N M v 1 1 g z , $ + Q.Q.Q.Q.Q.Q.Q.Q.Q.Q.Q.Q.",
"Q.Q.Q.Q.Q.Q.Q.Q.Q.Q.Q.Q.+ * m 9.s.K.c.c.m.m.m.P.b.c.P.P.V.x.x.v.P.L.v.v.P.d.9.C B N N N M v z 1 g , $ + Q.Q.Q.Q.Q.Q.Q.Q.Q.Q.Q.Q.",
"Q.Q.Q.Q.Q.Q.Q.Q.Q.Q.Q.Q.+ % , U s.P.J.V.N.b.m.K.P.P.V.b.V.J.P.P.n.V.V.V.G.u.G w M N N B N M z 1 1 , $ + Q.Q.Q.Q.Q.Q.Q.Q.Q.Q.Q.Q.",
"Q.Q.Q.Q.Q.Q.Q.Q.Q.Q.Q.Q.O 3 p O.8.7.=.P P P P =.7.8.=.P C _ 8.7._ C P I ` U L D S N N N A M z 1 g , $ + Q.Q.Q.Q.Q.Q.Q.Q.Q.Q.Q.Q.",
"Q.Q.Q.Q.Q.Q.Q.Q.Q.Q.Q.Q.O 3 f $.<.>.s 1 < q 1 A >.>.s 1 < S ,.,.S g q w N F  . .D N N N N M x z g , $ + Q.Q.Q.Q.Q.Q.Q.Q.Q.Q.Q.Q.",
"Q.Q.Q.Q.Q.Q.Q.Q.Q.Q.Q.Q.+ 3 f $.<.,.F w w v w H ,.,.F w w H ,.,.F r v N H J ..K A N N N N N N v z , $ + Q.Q.Q.Q.Q.Q.Q.Q.Q.Q.Q.Q.",
"Q.Q.Q.Q.Q.Q.Q.Q.Q.Q.Q.Q.O 3 f %.1.>.K A D D A K >.>.K S S K 1.1.L N S H  .X...K D N N N N N N M z , - $ Q.Q.Q.Q.Q.Q.Q.Q.Q.Q.Q.Q.",
"Q.Q.Q.Q.Q.Q.Q.Q.Q.Q.Q.Q.O 3 F O.%.#. .K K K K ..#.#. .K K O.1.,.L A H  . .....K S N N N B N N M z g , ; $ + Q.Q.Q.Q.Q.Q.Q.Q.Q.Q.",
"Q.Q.Q.Q.Q.Q.Q.Q.Q.Q.Q.Q.O 3 p K  ...X... . ...............$.<.,.H A J ........K S N N N M M N N x z z , $ + Q.Q.Q.Q.Q.Q.Q.Q.Q.Q.",
"Q.Q.Q.Q.Q.Q.Q.Q.Q.Q.Q.Q.+ * q B J .... .F F  .............$.<.,.L S J ........K S B N M x x M N M v z , $ + Q.Q.Q.Q.Q.Q.Q.Q.Q.Q.",
"Q.Q.Q.Q.Q.Q.Q.Q.Q.Q.Q.Q.+ # : v L X...K S B F J  . . .K ..#.>.$.H F J ........K S N M v q q v M M M x 1 ; $ Q.Q.Q.Q.Q.Q.Q.Q.Q.Q.",
"Q.Q.Q.Q.Q.Q.Q.Q.Q.Q.Q.Q.+ # > v L ....K D M v B J  .F F K ..J L J K ..........K S M v z 1 g z z z z M r , ; # + Q.Q.Q.Q.Q.Q.Q.Q.",
"Q.Q.Q.Q.Q.Q.Q.Q.Q.Q.Q.Q.# - > i H X... .S v z v L K D B F F B S K O.........K L S M r g g 1 1 g g z v M x 1 * $ Q.Q.Q.Q.Q.Q.Q.Q.",
"Q.Q.Q.Q.Q.Q.Q.Q.Q.Q.+ # ; , < v H ....K D M q v J K A N v M M D K ........ .F S B N M v q g 1 1 1 g z x M v 1 ; $ + Q.Q.Q.Q.Q.Q.",
"Q.Q.Q.Q.Q.Q.Q.Q.Q.Q.$ - , z x B J .. .L S M q v L K D M z q M A K ........K S N N N N N v 1 g g g 1 1 z v M x , $ + Q.Q.Q.Q.Q.Q.",
"Q.Q.Q.Q.Q.Q.Q.Q.+ # ; , g v D L o. .F A N M q v L K D M q z M D  .........K A N N N N N M v q 1 g 1 1 g g x M e * + Q.Q.Q.Q.Q.Q.",
"Q.Q.Q.Q.Q.Q.Q.Q.# - , z z B K .. .L S N N M q v L  .A M z q x B H  .o..... .D S N N N N N M v z 1 1 g 1 g z M e ; $ Q.Q.Q.Q.Q.Q.",
"Q.Q.Q.Q.Q.Q.o $ ; , g v D K .. .F S B N N M z v H  .D M q 1 z x B H  .......K L A N N N N N M v g 1 g 1 1 g g q 1 ; $ + Q.Q.Q.Q.",
"Q.Q.Q.Q.Q.Q.# - , g z B L .. .L A N N N M v g v H  .S M x q 1 z v B H  ....... .F S B N N N B M x q 1 g g 1 1 g 1 , $ + Q.Q.Q.Q.",
"Q.Q.Q.Q.+ $ ; < g v D J .. .F S N N N M v q 1 v H  .A N M M 1 1 q w N H  ...X.o.K L A M N N N N M v z 1 1 1 g 1 g , $ + Q.Q.Q.Q.",
"Q.Q.Q.Q.$ * , z v B K .. .H S N N N N v z 1 r B K  .H S B M w q g q x B H  ....... .F D A S N N N N x q g 1 1 g g , - $ Q.Q.Q.Q.",
"Q.Q.+ $ ; , g v S L o. .D A A B B M v z g z D J  ... .H A N N v 1 g z x A H K ...... .K K H S N N N N v 1 g g g 1 1 , ; $ + Q.Q.",
"Q.Q.+ $ , x g M H  . .L D M r r r e g z v B K ..X... .L S N B M v q , , v B L  .........X. .F S B N B M v z g g g g g , $ % Q.Q.",
"Q.Q.+ * e M N B D D D D A r 2 * * ; , v D K O.O.X. .H S B B A B N q = * 1 r B F  .O.X...X.O. .J S B B N M M z z g g g , $ + Q.Q.",
"Q.Q.O * e v r r e e r r r 8 * + o $ ; e s F f f F S i e r r r r r 8 * # ; 1 q i d f F f f F f d i r r r r e , , , , , ; $ + Q.Q.",
"Q.Q.Q.Q.* * * * * * * * * * + + + + $ * 3 3 3 3 4 3 * * * * * * * * # + # $ * * = 7 = 4 7 3 7 3 * * * * * * * $ $ $ $ $ % % Q.Q.",
"Q.Q.Q.Q.+ + + + + + + + + + % + + + + + O O + + + O + + + + + + + + + + + + + + O O O O o o o + O + + + + + + + + + + + + + Q.Q.",
"Q.Q.Q.Q.Q.Q.Q.Q.Q.Q.Q.Q.Q.Q.Q.Q.Q.Q.Q.Q.Q.Q.Q.Q.Q.Q.Q.Q.Q.Q.Q.Q.Q.Q.Q.Q.Q.Q.Q.Q.Q.Q.Q.Q.Q.Q.Q.Q.Q.Q.Q.Q.Q.Q.Q.Q.Q.Q.Q.Q.Q.Q.Q.Q.",
"Q.Q.Q.Q.Q.Q.Q.Q.Q.Q.Q.Q.Q.Q.Q.Q.Q.Q.Q.Q.Q.Q.Q.Q.Q.Q.Q.Q.Q.Q.Q.Q.Q.Q.Q.Q.Q.Q.Q.Q.Q.Q.Q.Q.Q.Q.Q.Q.Q.Q.Q.Q.Q.Q.Q.Q.Q.Q.Q.Q.Q.Q.Q.Q."
};
