/* XPM */
static char *_0f50d8502094478dfc1d7f9c7ffb30fdTh5Ov3u1rgcZtTS[] = {
/* columns rows colors chars-per-pixel */
"64 64 198 2 ",
"   c None",
".  c #00050E",
"X  c #000D14",
"o  c #030F1A",
"O  c #041219",
"+  c #0B151F",
"@  c #09181D",
"#  c #0D1620",
"$  c #0E1B23",
"%  c #111623",
"&  c #151C26",
"*  c #1B1B2B",
"=  c #151828",
"-  c #211A2D",
";  c #231D33",
":  c #2B1C34",
">  c #341C3A",
",  c #3B1E3E",
"<  c #1A232B",
"1  c #1F2C33",
"2  c #252333",
"3  c #252B33",
"4  c #2C233C",
"5  c #2F2C3B",
"6  c #2A2B35",
"7  c #3C203F",
"8  c #302E39",
"9  c #243036",
"0  c #2D343C",
"q  c #33343E",
"w  c #38333F",
"e  c #3F2141",
"r  c #3D2A4A",
"t  c #382646",
"y  c #3B3441",
"u  c #333B42",
"i  c #3A3F46",
"p  c #432344",
"a  c #482446",
"s  c #4B2B4A",
"d  c #402A4D",
"f  c #522F4F",
"g  c #423545",
"h  c #433A47",
"j  c #4D384E",
"k  c #50304E",
"l  c #553452",
"z  c #5A3554",
"x  c #53325D",
"c  c #462D52",
"v  c #682D56",
"b  c #6C3159",
"n  c #633D5B",
"m  c #71395F",
"M  c #5E3667",
"N  c #62386A",
"B  c #6C3B73",
"V  c #703D77",
"C  c #7A3D7F",
"Z  c #3D4348",
"A  c #41424C",
"S  c #4B4C55",
"D  c #454B53",
"F  c #534453",
"G  c #5D4A59",
"H  c #4A555A",
"J  c #52545C",
"K  c #624C5D",
"L  c #525B60",
"P  c #5C5B62",
"I  c #6A4260",
"U  c #6C4964",
"Y  c #634969",
"T  c #724B67",
"R  c #754B69",
"E  c #7A4E6C",
"W  c #744165",
"Q  c #675060",
"!  c #675766",
"~  c #7B526E",
"^  c #765A6B",
"/  c #705767",
"(  c #77407C",
")  c #78467D",
"_  c #6D5E71",
"`  c #7F5B71",
"'  c #7B557E",
"]  c #5F666C",
"[  c #67646B",
"{  c #68646D",
"}  c #786D7A",
"|  c #756975",
" . c #6F787C",
".. c #7B757C",
"X. c #8F3B6C",
"o. c #933E6F",
"O. c #8D3E7C",
"+. c #91427F",
"@. c #9E457B",
"#. c #974775",
"$. c #815671",
"%. c #845E74",
"&. c #8D5E7A",
"*. c #895B77",
"=. c #98577C",
"-. c #A14A7F",
";. c #856476",
":. c #8A6378",
">. c #89667C",
",. c #92677E",
"<. c #80727E",
"1. c #7B3E80",
"2. c #7E4383",
"3. c #824483",
"4. c #844987",
"5. c #864C89",
"6. c #894F8B",
"7. c #934581",
"8. c #964C85",
"9. c #8B538C",
"0. c #935B93",
"q. c #975B92",
"w. c #9A558C",
"e. c #A45786",
"r. c #9B6B84",
"t. c #966981",
"y. c #8D7183",
"u. c #857B85",
"i. c #817282",
"p. c #976396",
"a. c #9E6A9B",
"s. c #957993",
"d. c #9C738B",
"f. c #A5748D",
"g. c #A8738E",
"h. c #A46799",
"j. c #A77597",
"k. c #B27395",
"l. c #A976A4",
"z. c #AC7AA6",
"x. c #AE7CA9",
"c. c #A478A1",
"v. c #B87AA1",
"b. c #7E878A",
"n. c #868E91",
"m. c #978994",
"M. c #9C8398",
"N. c #9B8997",
"B. c #9C929A",
"V. c #A4899F",
"C. c #A58297",
"Z. c #B6839A",
"A. c #9B9DA1",
"S. c #AB82A5",
"D. c #A888A3",
"F. c #B78DAF",
"G. c #B888A9",
"H. c #A69AA3",
"J. c #B69BAE",
"K. c #BE9BAE",
"L. c #B395AC",
"P. c #B88FB4",
"I. c #AFB4B6",
"U. c #B5BABC",
"Y. c #B3B5B8",
"T. c #A4A4A8",
"R. c #C795AA",
"E. c #C59CBB",
"W. c #C79DB6",
"Q. c #C3A7B8",
"!. c #CAACBD",
"~. c #C7A4B6",
"^. c #D5A8BC",
"/. c #C9B0BD",
"(. c #CDA6C1",
"). c #D4ACC3",
"_. c #D5B5C5",
"`. c #D7BAC8",
"'. c #CBBCC4",
"]. c #E1BFD2",
"[. c #E1B9C9",
"{. c #C5C2C5",
"}. c #D5CAD0",
"|. c #DED8DC",
" X c #E1C0CE",
".X c #E3CBDC",
"XX c #E9CDD9",
"oX c #E2C7D3",
"OX c #E8D7DF",
"+X c #EED7E1",
"@X c #EEDEE4",
"#X c #F2DAE3",
"$X c #ECE8EA",
"%X c #F4ECF0",
"&X c #FEE9F0",
"*X c #FBF2F5",
"=X c #FEF9FB",
"-X c #FBF5F8",
/* pixels */
"                                                                                                                                ",
"                                                                                                                                ",
"                                                                                                                                ",
"                                                                                                                                ",
"                                                                                                                                ",
"                                                                                                                                ",
"                                                                                                                                ",
"                                                                                                                                ",
"                                                                                                                                ",
"                                                                                                                                ",
"                                                                                                                                ",
"                                                                                                                                ",
"                                                                                                                                ",
"                                                                                                                                ",
"                                                          % # #                                                                 ",
"                                                          ; ; ; *                                                               ",
"                                                      X = r x c 4 O                                                             ",
"                                                      < 8 x V N t & #                                                           ",
"                                                    Z P _ 2.2.Y c r 4 %                                                         ",
"                                                X < P B.L.j.5.) V N d * O                                                       ",
"                                                3 Z } J.E.l.5.2.2.C x t * =                                                     ",
"                                            o u [ u.M.S.x.0.5.2.3.2.N x d 2 o                                                   ",
"                                          o < D m.Q.P.p.5.3.2.2.2.2.2.C N r * @                                                 ",
"                                          q S | D.E.x.9.1.1.2.2.2.2.3.2.) Y S Z 9                                               ",
"                                      X 3 { m.D.S.a.0.4.2.2.2.2.2.2.2.2.9.s.M...Z O                                             ",
"                                      < A u.Q.E.a.4.2.2.2.4.2.2.2.2.2.2.0.F.(.N.J 3 $                                           ",
"                                    Z P } M.P.x.0.( C 2.2.2.2.3.2.3.2.2.6.l.P.D.i.! A <                                         ",
"                                X < J B.J.S.p.9.4.2.2.2.2.2.2.2.2.2.2.2.2.9.0.j.L.H.} 0 X                                       ",
"                                6 A } J.E.l.5.1.1.3.2.2.2.2.2.2.2.2.2.2.2.1.2.a.(.`.B.L u 1                                     ",
"                            X q [ u.M.S.l.0.3.1.1.2.2.2.2.3.2.2.2.2.2.2.2.1.2.a.).oX'.T.b.H $                                   ",
"                          X < D m.Q.F.p.5.3.2.2.3.2.2.2.2.2.2.2.2.2.2.2.2.1.4.a.E.oX$X$X{.2.u o                                 ",
"                          u D | V.W.z.9.1.1.1.1.2.2.2.2.2.2.2.2.2.2.2.2.2.2.2.0.S.Y.|.%X|.T.] Z u                               ",
"                      O 0 [ m.V.c.h.q.4.1.1.1.2.2.2.2.2.2.2.2.2.2.2.3.3.3.1.2.5.0.l.E..XOX}.Y.n.D $                             ",
"                      O 0 u.!.!.l.9.3.3.2.5.9.2.4.3.3.2.2.2.+.+.3.3.3.3.3.O.3.2.3.w.z._.OX*X%XI.L $ .                           ",
"                      O q u.`. XE.z.h.8.q.l.P.P.p.8.+.+.+.7.+.+.8.7.7.O.7.7.7.+.O.8.v._.+X=X=XU.L $ X                           ",
"                      O q u._.XX X(.v.e.h.E..X_.v.-.@.@.@.@.-.-.7.-.-.-.@.@.@.@.o.e.v.^.OX-X-XY.L $ .                           ",
"                      O q ..!. X`.W.k.#.e.K.}./.g.#.X.o.o.o.#.o.o.#.o.o.o.#.X.X.o.#.k.^.XX*X-XU.L $ .                           ",
"                      O 0 ;.R.~.C.i.E N W >.s.y.E b v b b b v b b b b b b b b v v m =.G.`.%X=XU.L $ .                           ",
"                      O 6 ^ Z.g.~ l s a a s k f s a a a a a a a a a a p a p a a a f $.Z.^.#X%XI.J $ .                           ",
"                      O 2 K | %.R n f p , > , , , , , e 7 7 , e , , 7 7 e 7 e p l U f.W.[.{.U.n.H $                             ",
"                          5 h G ;.,.R s , > , , e e , e e , e e e e , e , , p z ~ f.~.XX}.B.] Z 0                               ",
"                          o % h ;.g.&.n a p e e e e e e e e e e p , e p , , p n r.R.`.OX{. .9 O                                 ",
"                            O 8 K ^ ` %.R z p , 7 e e e e e e e e e e e , , p m g.R.W.A.b.H &                                   ",
"                                2 w Q ,.r.R a , 7 e e e e e e e e e e e , , p K g.Z.,.J u 9                                     ",
"                                X < F >.r.~ n k p e 7 e e e e e p , e e p s z R ,.,.Q 3 X                                       ",
"                                    w F Q %.&.~ z 7 , 7 e e e e , p , e f T &.%.Q G g &                                         ",
"                                      & w ^ f.r.m p , p e e e e p e , e l *.g.:.F < #                                           ",
"                                      X 2 G ;.:.$.K z a , , p , e e , e f T ;./ w O                                             ",
"                                          8 h K :.r.~ s , , e p p e e p p g h y 3                                               ",
"                                          O % h ;.g.:.n a e p , e e , 7 > - % @                                                 ",
"                                            O 8 G ^ $.$.R n a , e e > : * = O                                                   ",
"                                                3 w Q r.r.R s , e , : = % +                                                     ",
"                                                X & F >.,.K p 4 > > - # O                                                       ",
"                                                    w F F g ; - * - = +                                                         ",
"                                                      < & % # # # + #                                                           ",
"                                                      o X O O O O O                                                             ",
"                                                                                                                                ",
"                                                                                                                                ",
"                                                                                                                                ",
"                                                                                                                                ",
"                                                                                                                                ",
"                                                                                                                                ",
"                                                                                                                                ",
"                                                                                                                                "
};
