/* XPM */
static char *_04e6f7e6b864fb986a82032d3f79da3TC5qmlgpHTZsBP0A[] = {
/* columns rows colors chars-per-pixel */
"64 64 156 2 ",
"   c #161927",
".  c #171A29",
"X  c #191C2D",
"o  c #1B1E31",
"O  c #1E2236",
"+  c #1F2338",
"@  c #1A373F",
"#  c #193C3F",
"$  c #22263C",
"%  c #232A3D",
"&  c #223C3F",
"*  c #1A423F",
"=  c #1F513F",
"-  c #1E3341",
";  c #1B3A40",
":  c #242741",
">  c #262B44",
",  c #292E46",
"<  c #2A2F48",
"1  c #213342",
"2  c #293346",
"3  c #263A42",
"4  c #2B3C45",
"5  c #2D344A",
"6  c #30374C",
"7  c #323A4D",
"8  c #2F3651",
"9  c #303752",
"0  c #333A54",
"q  c #383E56",
"w  c #353E59",
"e  c #383F59",
"r  c #1B4340",
"t  c #2B4345",
"y  c #214D41",
"u  c #2E4C45",
"i  c #2F444D",
"p  c #334848",
"a  c #235441",
"s  c #2B5444",
"d  c #265C42",
"f  c #384156",
"g  c #37405C",
"h  c #3B435D",
"j  c #2F6D44",
"k  c #326E44",
"l  c #347245",
"z  c #397447",
"x  c #367B45",
"c  c #397B47",
"v  c #3E7452",
"b  c #3C4561",
"n  c #3F4965",
"m  c #41475E",
"M  c #457D47",
"N  c #47645B",
"B  c #434767",
"V  c #444C65",
"C  c #484F66",
"Z  c #444D6B",
"A  c #495067",
"S  c #46516E",
"D  c #4C536B",
"F  c #52596F",
"G  c #475370",
"H  c #4A5571",
"J  c #4E5A76",
"K  c #4E5B78",
"L  c #525971",
"P  c #585F75",
"I  c #515E7A",
"U  c #546277",
"Y  c #596177",
"T  c #54607C",
"R  c #5E657B",
"E  c #60677D",
"W  c #60687D",
"Q  c #3C8647",
"!  c #3D8A47",
"~  c #4C8E4A",
"^  c #469748",
"/  c #469948",
"(  c #509748",
")  c #448651",
"_  c #4A8D55",
"`  c #59AE4B",
"'  c #5CBB4C",
"]  c #5FBC50",
"[  c #7CB87A",
"{  c #5EC04C",
"}  c #63C64D",
"|  c #64C94D",
" . c #67D04E",
".. c #69CA52",
"X. c #7DC572",
"o. c #8ED97C",
"O. c #91DC7E",
"+. c #566481",
"@. c #586683",
"#. c #5B6A87",
"$. c #5D6B89",
"%. c #636C83",
"&. c #606F8C",
"*. c #637184",
"=. c #63728F",
"-. c #6C768D",
";. c #667592",
":. c #6C7B96",
">. c #6E7D99",
",. c #737D94",
"<. c #707F9B",
"1. c #778094",
"2. c #73829E",
"3. c #78849C",
"4. c #7685A0",
"5. c #7887A1",
"6. c #7B8BA5",
"7. c #7F8EA8",
"8. c #80899D",
"9. c #828DA5",
"0. c #808FA9",
"q. c #8A93A6",
"w. c #8A94A7",
"e. c #8493AC",
"r. c #8B95AA",
"t. c #909BAE",
"y. c #8D9CB4",
"u. c #919FB6",
"i. c #92A0B6",
"p. c #9BA5B7",
"a. c #96A4BA",
"s. c #9BA6BA",
"d. c #9DA9BC",
"f. c #A1ABBD",
"g. c #89C485",
"h. c #90CD88",
"j. c #9CAAC0",
"k. c #A0AEC4",
"l. c #A4B2C7",
"z. c #A9B4C5",
"x. c #A6B4C9",
"c. c #A9B6CA",
"v. c #ADBACD",
"b. c #B2BDCE",
"n. c #B4BFD0",
"m. c #B5C1D3",
"M. c #B9C5D6",
"N. c #BAC7D8",
"B. c #BCC9DA",
"V. c #BECBDC",
"C. c #C0CCDC",
"Z. c #C1CDDD",
"A. c #C2CEDE",
"S. c #C4D0DF",
"D. c #C6D2E1",
"F. c #C8D4E4",
/* pixels */
": R m.D.Z.Z.Z.Z.Z.Z.Z.Z.Z.V.Z.Z.V.S.S.B.l.>.0 & d d d d d d = v h.o...{ | } } } | ` u V q.v.Z.S.Z.Z.Z.Z.V.Z.V.S.V.Z.S.V.S.Z.V.V.",
": W M.B.b.v.v.v.v.v.v.v.v.v.v.v.v.v.l.a.3.U i y d d d a a = = v g.o...{ | } | } | ' M N %.9.j.c.v.v.v.v.v.v.v.v.v.v.v.v.v.v.B.F.",
": R v.l.y.y.y.y.y.y.y.y.y.y.i.u.y.y.5.#.h 4 s d d d d d d j d v g.o.| | } } } } } } } ~ i Z ;.0.u.u.u.u.y.y.y.y.u.y.y.y.u.u.x.N.",
"> f R -.2.e.y.y.y.y.y.y.y.y.y.y.y.y.4.I 9 3 l x x x x x x x l _ h.O.| | | } | | | |  .( 4 h #.6.u.e.y.y.y.y.y.y.y.y.y.y.0.<.*.@.",
"> 5 h S @.5.y.y.y.y.y.y.y.y.y.y.y.y.4.+.w 3 k Q x x x c x Q x _ [ X.] ' ' ' ' ' ' ' { ~ 6 b &.0.u.y.y.y.y.y.y.y.y.y.y.e.,.I Z B ",
"> L t.R f +.2.y.y.y.y.y.y.y.y.y.y.y.5.+.0 > y y y a a r a r y a v ) ^ / / ^ ^ / / / / z 4 n $.0.u.y.y.y.y.y.y.y.y.y.e.:.H e ,.p.",
": %.m.1.g n +.5.7.6.6.6.6.6.5.5.6.5.2.T g > - ; ; # # # ; # # * r j Q Q Q Q Q Q ! Q l s 1 B $.2.6.6.6.6.5.6.6.6.6.7.>.J w B t.S.",
": W b.r.K w h +.$.#.#.#.#.#.#.$.#.#.#.T w > > 1 # # # # # # # r a j Q ! ! ! ! ! ) c t > > B +.#.#.#.#.#.#.#.#.#.$.$.I 0 h #.s.Z.",
"> W m.j.>.G b h b b b b b b b b b b n b 5 > > 1 - ; # # # # # r a l Q ! ! ! ! ! l p 5 % , 0 B B b h b b b b b b h h b b T 5.x.Z.",
"$ W b.x.e.:.J 0 > > - : : : > % % : : % : > : : > - ; r # # # r a j Q ! ! ! ! x = $ : % : % $ % > > : : : : : : > 2 h @.2.y.v.Z.",
": R m.x.y.e.>.J w : O X o X X X X o o o O X X X O + 1 ; # # # r a l Q ! ) ! z p % o o o o X o X X X o X X X o + < b @.5.e.u.v.Z.",
": W b.l.y.y.6.$.b : X     . . .             . . . O % - ; # # r a j Q ! Q z s $ o . . .       .     . . .   X o 5 Z ;.e.y.u.v.Z.",
": W m.x.y.y.5.#.b % X . . . . .     .   . . . . . . O % - # # r a j Q ! z t % X . . . . . . . . .   . .   X   o < G ;.e.y.u.v.Z.",
": R m.x.y.y.6.#.b : o . . X o o o o o o O o . . . . . O % - ; * = l Q z s % X   . .   X X o o X O X X .   X   o , G ;.e.y.u.v.Z.",
"% W m.l.y.y.6.#.b : X . . o O O O O O O O O . . . . . . O % - r a j x u $ X   X . X X X $ o $ o O O O .     X o , G ;.e.y.y.v.Z.",
": W m.l.y.y.6.#.b : o X o O O O O O O O O O o O O X   . X o $ 1 3 t t @ X X X X o o o O o $ o $ O O O O X   X o , G ;.e.y.u.v.Z.",
": W m.x.y.y.6.#.b : X . O + O + O O O + O O O + O o X X . X + : : : $ O . X o O + O O + O + O O O O O O X     O > S ;.e.y.u.v.D.",
": R b.x.y.y.6.#.b % o X O O O O O O O O O O O O O O O O O O O + + + + + O O O O O O O O O O O O O O O O X     O < G ;.7.y.y.v.V.",
"> F e.e.4.4.>.#.b > X X O O O O O O O O O O O + O + O O O O O O O O O O O O + O O O O O O O O + O O O O o X   o < G &.2.2.5.e.y.",
"> g T +.+.+.+.T b : X X O O O O + O + O + O O O O O O + O O O O O O O O O O O O + O O O + O O O O O O O O O X O < S +.+.+.+.+.@.",
"> < 6 0 9 0 0 g 5 : o . O + + $ $ + O O O O O + + O O O O O O O O O O O O O + O O O O + O O O O + % + + + O . O > 9 w 9 9 0 9 9 ",
"> 0 A V b h f 0 5 : o X O + + > > + + O O O O O O O O O O O + + O O O O O O O O O O O O + + O + + > : + O O   O > 5 f C D D D D ",
": P d.i.6.6.>.T h : X X O $ > > > > % O O O O O + + O + O + + + O O + O + + O + + + O O + + + > > > > > + o . O < n =.p.z.z.z.z.",
"> W M.v.u.y.e.$.b : X X O $ > > > > : $ $ $ $ % $ $ + $ $ + + : $ $ $ $ $ $ + % % + % + + + : > , > > > + O . O < G 2.j.m.m.B.D.",
": W m.l.y.y.5.#.b : X X O $ > > > > > > > > , > > > > > > > > > > > > > > > > > > > > , > > > > > > > > + O . O < G ;.e.u.i.v.V.",
": R m.x.y.y.6.#.b % X X O % > > > > > > > > > > > > > > > > , > > > > , > > > > > > > > > > > > > > > > + O O O < S ;.0.y.y.v.Z.",
"% W b.x.y.y.6.#.b : X X + % > , > > > > > > > , > > > > > > > > > > > > , > > > > > > > > > > > > > > > + + O O < G ;.e.y.i.v.V.",
": W m.x.y.y.6.$.b % X O : > > > > > > > > > > > > > > , > > > > > > > > > > > > > > > > > > > > > > > > > + X O < G ;.e.y.i.v.V.",
": R m.l.y.y.6.#.b $ X o > > > > > > > > > > > > > > > > > > > > > > > > > > > > > > > > > > > > > > > > , + O o < G ;.e.y.i.v.V.",
": W m.x.r.y.6.#.b : o o > > > > > > > > > > > > > > > > > > > , > > , > > > > > > > > , > > > > > > > > > : X O < H ;.e.y.y.v.V.",
": R m.x.y.y.6.#.b % X o : > > > > > > , > > > > > > > , > > > > > > > > > > > > > > > > > , > > > > > > , + X o 5 Z ;.e.y.y.v.D.",
": W m.x.y.y.6.#.b > X o : > > > > > > > > , > > > > > > > > > > > > > > > > , > > > > > > > > > > , > > > + X O < S ;.e.y.i.v.V.",
": %.n.x.y.y.6.#.b $ X O > > > > > > > > > > > > < > > > > > > > > > > > > > > > > > > > > > > > > > > > > $ X O , S ;.e.y.y.v.Z.",
": L u.y.5.6.2.#.n % X X : , > > > > > > > > > > > > > > > < > > > > > > > > > > > > > > > < > > > > > > , $ X X 5 S ;.4.4.7.c.D.",
": h @.#.#.@.#.+.b > X O > > > > > > > > > > > > > > > > > > > > > > , > > > > , > > > > > > > > > > < > > % X O < S #.#.@.&.a.M.",
"> 5 w w w w w h 5 > > > > > > > > > > < > > > > > > > > > > > > > > > > > > > > > > > > > > > > > > > > > , % > > 9 h w w e L E ",
"> 6 h m m m f 9 < , 5 6 < > > > > > > > > > > > > > > > > > > > > > > > > > > > > > < > > > > < > > > < > < 6 5 > 5 0 h B m m h ",
"> H u.f.d.d.9.I w , 6 6 > > > > > < > > > > > < > > > > > > > > , > > > > > > > > > > > > > > > > > > > > < 6 5 5 b %.t.d.p.p.p.",
"% W N.Z.m.m.a.$.h , 5 7 > > > > > > > > > > > > > > > > < > > > > > > > > > > > > > > > > > > > > > > > > < 8 5 5 Z 2.l.m.m.Z.D.",
": W m.c.y.a.7.#.b , 6 5 , > > > > > > > > > > > > < > > > > > > > > > > > > > , > > > > > > > > > > > > > < 8 < < S ;.e.a.i.b.V.",
": W n.x.y.e.6.$.b , 5 6 > > > > > > > > > > > > > > > > > > > > > > > > > > < > > > > > > > > > > > > > > , 6 2 5 S ;.7.y.y.v.Z.",
": W n.x.y.y.6.#.b > 7 5 > > > > > > > > > > > > > , > > > > > > > > > > > > > > > > > > > > > > > > > > > 5 6 5 < Z ;.e.y.y.v.Z.",
"> E n.x.y.y.6.#.b > 5 6 1 > > > > > < > < > > > > > > > > > > > > > > > > > > > < > > > > > < > > > > > > < 6 5 5 Z ;.e.y.u.v.Z.",
"$ W n.x.y.y.6.#.b , 6 5 , > > > > > > > > > > > > > > > > > , > > , > > > > > > > > > > > > > > > > > > > , 6 < < G ;.e.y.u.v.Z.",
": W n.x.y.y.5.#.b , 5 7 < > > > > > > > > > > > > > > > > > > > > > > > > > > > > > > > < > > > > > > > > < 7 2 8 Z ;.e.y.y.v.Z.",
": W n.x.y.y.6.#.b > 6 5 < > > > > > > < > > > > > > > > > > > > > > > > > > > > > > > > > > > > > > < > > < 7 5 < G ;.e.y.y.v.Z.",
": R n.x.y.y.6.#.b , 5 8 > > > > > > > > > > > > , > > > > > > > > > < > > > > > > > > > > > > > > > > > > , 9 < < Z ;.e.y.u.v.Z.",
": W b.l.y.y.6.#.b > 5 8 > > > > > > > > > > > > > > > > > > > > > > > > > > > < > > > > > > > > > > > > > < 7 5 < G ;.0.y.u.v.Z.",
": R m.x.y.y.5.#.b > 7 5 > > > > > > > > > > > > > > , > > > > > > > > > > > > > > > > > > > > > > > > > : < 7 5 < A ;.e.y.u.v.Z.",
"> R m.x.y.y.6.#.b , 5 7 > > > > > > > , > > > > > > > > > > > > > > > , > > > , > > > > > > > > > > > > > < 6 5 5 Z ;.e.y.u.v.Z.",
"% R m.l.y.y.6.#.b > 5 5 < > > > > > > , > > > > > > > > > > > > > > > > > > > > > > > > > > > > > > > , > < 6 5 < Z ;.e.y.u.v.Z.",
"> W m.l.y.y.6.#.b > 7 5 > > > > > > > > > > , > , > > > > > > > > > > > > > > > > > , > > > > , > > > > > < 7 < < G ;.e.y.u.v.Z.",
": R b.c.y.y.6.#.b , 5 5 > > > > > > > > > > > > > > > > : > > > > > > > > > > > > > > > > > > > > > > , > < 6 5 5 S ;.e.y.u.v.Z.",
"> W m.k.0.e.4.#.b > 7 7 5 > > > > > > > > > > > > > : > : > > > > > > > > > > > > , > > > > > > > > > > > < 7 5 2 G ;.6.6.e.c.D.",
"% W b.y.&.$.$.@.b > 5 5 > > > > > > > > > > > > > > > > > > > > > > > > > > > > > > > > > > > > , > > > > < 6 < 5 S $.$.$.;.j.S.",
"> V -.Y h b n Z 9 < 7 5 , > > > > > > > > > > > > > > > > > > > > > > > > > , > > > > > > > > > > > > > > , 7 5 < w B b b B %.,.",
"> 5 0 0 0 0 9 8 < , 6 7 > > > > > > > > > > > > > > > > > > > > > > > > > > > > > > > > > > > , > > > > > , 7 5 > < 5 0 0 0 q q ",
": D 8.r.q.w.,.H 9 > 5 7 > > > > > > > > > > > : > > > > , > > > > : > > > > > > > > > , > > > > > , > > > , 6 5 < w T 6.r.q.q.q.",
": E M.Z.M.N.j.$.b > 6 5 , > > > > > > > > > > > > > > > > > > > > > > > > > > > > > > > > > > > > > > > > , 7 5 5 G >.x.N.M.Z.V.",
": W n.v.a.d.0.#.b , 7 5 > > > > , > > > > , > > > > > > > > > > > > > > > > > > > > > > > > > > > > > > > , 7 5 < Z :.y.a.d.b.Z.",
": %.m.j.4.4.>.#.h , 4 6 > > > > > > > > > > > > > > > > > > > > > > > > > > > > > > > > > > > > > > > > > , 6 5 5 S =.2.4.6.x.F.",
": R x.q.@.@.#.+.h , 6 6 5 > > > > > > > > > > , , > > , > , , > 2 > > > , > > , > , , > > > > > > > > > > 1 6 5 , S @.#.@.$.i.m.",
"> f Y S w w f w 8 , f f 5 < > > > > > > > , 6 6 5 7 5 5 7 5 5 7 5 5 6 6 6 5 5 5 6 6 5 5 , > > > > > > , 5 6 0 5 > 9 g g w h L E ",
"> > > > > > > > > 5 h h 0 5 > > > > > > > , 7 7 7 7 7 7 7 7 7 7 7 7 7 7 7 7 0 0 7 7 7 5 , > > > > > > , 6 7 7 5 > > > : > > > : "
};
