/* XPM */
static char *_2186599426b4744c2e9ba2913149905qPRsyrsHWFg8mfGU[] = {
/* columns rows colors chars-per-pixel */
"64 64 91 1 ",
"  c #21263F",
". c #222741",
"X c #262B44",
"o c #282D47",
"O c #272D49",
"+ c #282E49",
"@ c #2C324D",
"# c #2F3651",
"$ c #303752",
"% c #323A55",
"& c #383E57",
"* c #333C5C",
"= c #383F58",
"- c #3E455E",
"; c #374161",
": c #3A4466",
"> c #3D4769",
", c #41475E",
"< c #42485F",
"1 c #404760",
"2 c #424A62",
"3 c #424D6E",
"4 c #495067",
"5 c #45516D",
"6 c #4B5268",
"7 c #495673",
"8 c #4D5A76",
"9 c #4D5A79",
"0 c #515F7E",
"q c #52607F",
"w c #546281",
"e c #586785",
"r c #596886",
"t c #5B6B89",
"y c #616B84",
"u c #626F8B",
"i c #63718C",
"p c #667592",
"a c #727F97",
"s c #737F98",
"d c #748199",
"f c #7D869A",
"g c #7686A1",
"h c #7E8DA7",
"j c #7F8EA8",
"k c #80889C",
"l c #808FA8",
"z c #8791A6",
"x c #8291AA",
"c c #8291AB",
"v c #8292AB",
"b c #8494AD",
"n c #8796AF",
"m c #8893A8",
"M c #8994A8",
"N c #8A95AA",
"B c #8B9BB3",
"V c #8E9DB4",
"C c #8E9DB6",
"Z c #8F9FB6",
"A c #909FB6",
"S c #92A0B7",
"D c #99A3B6",
"F c #9AA5B7",
"G c #91A0B8",
"H c #94A2B9",
"J c #9CA6B8",
"K c #9CA7B8",
"L c #9CA6B9",
"P c #9DA8B9",
"I c #9EA8BA",
"U c #9BAABF",
"Y c #9BAAC0",
"T c #9CABC1",
"R c #9DABC1",
"E c #A6B3C8",
"W c #A8B5CA",
"Q c #ADBACD",
"! c #B1BED0",
"~ c #B2BFD1",
"^ c #B6C3D5",
"/ c #B7C4D6",
"( c #B8C4D6",
") c #B8C5D6",
"_ c #BBC7D9",
"` c #BDCADB",
"' c #C1CDDD",
"] c #C3CFDF",
"[ c #C4D0E0",
"{ c #C4D1E1",
"} c #C7D3E2",
/* pixels */
" .  .  . .XX    .. . .XX               .XX           X        XX",
"4464644662@@,666464662@@<666646466666662@@<66666666<@@<466666<@X",
"DFFFFDFLIf,,fLLJFFFILf,-fLLFFFFFFFFFFLIf--fFIFFFFFIf,-fFIFFKJk< ",
"''_)/_))~m24J]`)))//^z<4J[`)))))))))))~M<4F{`))))^^M24F}')))!M4 ",
"[)EUUURHzr&6J`WUYRRAxy=6J`WUUUUURURRRHlt&4F`WUURRHjr&4F`WYRSxy- ",
"'/Axlllgi7@6J^Shhxxgi5@6I^Slhllhhllllgi5#6I^Sjjxxgp7#4J^Gjjgi7$ ",
"}Qhppppit8@6I!lipppit8@6I~xipppppppppiu7#6I^jiipppr7#4I/hppit8%X",
"Lzr577778>@,kMt777778>@,fNr7777777777873@-fNy7777782@-fNt77882@X",
"4<&@##@$$@X@,<&#$##$$@X@,2&$@#######$$$@X@,1-@$@##$@X@-2%###$@oX",
"------<-----------------+o&,,--:-----,--,:,&+o&----------,----@.",
"aadaddddddddddddddddsdfr&%eddddddsasssdddddq$&yddddddddsadddfy& ",
"BBbxxxxbxxxxxxxlcccxxxlu&,dAbxxlxxxxbcccczzp--dVbxxxxxxbzxxxhi- ",
"Vbdpppppppppippppppppu03@,dbdppppppppppppie3@,dndppppppppppiq3@X",
"Vlpeeeeereeeeeeeeeere03*o,dcpeeerrrrereeeq>%o:dxpreeeeeeeeeq3*+X",
"Vjpeeererrrrerereeeeew3*+,dcpreereerrrreeq3*+-dxpeereeeerreq3*@ ",
"Gxt9qqqqqqqqqqqq0wwq093*o2dcu00000ww0000q93*+<dxp900qqwqwwq83*@X",
"Ghq3333333333333333333>*O,dh03333333333333>*+,dhw33333333333>*@X",
"su3*%************%*****#o&yi3**************$X,qu3%***********%OX",
"-%@OOOOOOOOOOOO@+++OOO+OX+=*@++OOOO@+Oo+O@++X+&-#@OO+OooOOOOOOXX",
"----1--,--211-@+=1111,1:-,-:,,,---,--,1:--,,,,:=++&:-,<:11,12&@X",
"sdsdsddddddddy&&tdddddddsdsdddddsddddddddddddddy&&yddddddddddy&X",
"VVclcccxcxcxhi&-dVncccxxbjbjjbjjxccccbxcxxcxjjji&,sGnxxlccxxli- ",
"Vbsppppppppuw3@,dnspppppppppppppppppppppppppppw3@,abdppppppue3@X",
"Vjprwrrrrrr03%O1dcprwrrreerrrteereereeeeeeeerw>*o,dcpreerre03%oX",
"Vjpeeeeeeeew>*O-dxpeeeeeeeeeeeeeeeeeeeeeeeerrw3*O,dcpreeereq3*@X",
"Vxpeeeeeetew3*O,dcpeeeeeerrererrrrrererrrrrrr9>*O:dcpeeerreq3*OX",
"Vhpeetetert03*@-dxpeerrrrrrerrerrrrreerererrrw>*O1dcpeerrrr03*@X",
"Vjpeeeeerre03*o-dcpeereererrerrrererrerrrrrrrw3;O,dxpeerrrew3*OX",
"Vlpeeerretrw5*O2dxprerrrerrrrrerrrrrrrerrrerew3*O-dxpeereeew3*+X",
"Vlpeeeeeerrq3*O,dxprerreerrrrrrrrrrrererrrrrew3%@,dxpeerreew3;+X",
"Vlpeeeeerrr03*O,dxprerrrrrrrrrrrrrrrrrrrrrerrw3*+,dcprerrrew3*#.",
"Vlpeeeterrtw3*O:dxprreerrrrrrrrrrrrrrrrrrrrerw3*O:dcpeeretew3;+X",
"Vjdrttqtettq>;o-gjdteedqttttetterrrrtrrrtteeew>;O-djpttttwt0>;@.",
"Sgt0qqqqqqq8>;o-djtqq88q000q0000wwwwwwwwwewww9>*O>djiw0000w0>;+O",
"Vjq>>5-->7-:-;o-ghq>>5->>5>53533>>>>3>>>>>>>>>>;o-fjw>>>>>>>:-+o",
"di-;;;;-;;;;;; ;qd>%;;;;*;***;;*;*;;;*;;*-;-;*;#o-tp>*;--;;;*%+X",
"-;.X oo XX+@@XX ;-oXXX+ OOOO+@OO@Oo@OOOOo++++++O.+--oooooooXO+OO",
";;@;;;-;;ooX@;;;;o@;;;;;%%#;%%%%$&$$*%%%%#oo#%%%%%$%$%#-%%%-%#oX",
"8868888885;o>88888688888888888998888888884##>89988888888888885# ",
"tqqqqqqqq>o;8eeeqqqqqqqqqqqqqqqq00we0w0w05#%8teeqqqqqqqqq0qq05#X",
"tq8>5>7>;;X;487>555>5>7>555533335333333>>*+%9w7>>>>>>>>>>7>>>-o.",
"tq>:>::;;+X;8q7;;;::>::>::;::::::::::::;%@X%9w>:>>>:>>>::::;;+oX",
"q8>::::;#+ #8q5;:::::::::::::::::::::::;%@X%9w>:>>::>>:::::;;@oX",
"d85::::;;@X;8q5;:::::::::::::::::::::::;%@X%9w7::>:::>:::::;#@XX",
"tw>::::;%@X#9w>::::::::>:::::::::::::::;%@o%805::::::::::::;#@oX",
"te>>:::;%@X;9w5::::::::::::::::::::::::;%@X%8w>::::::::::::;;+oX",
"tq>>:::;#+X#9w5>::::::::::>:::>::::::::;%@+%805::::::::::::;;@oX",
"rq>::::;;@X;9w>::::::::::::::::::::::::;%@O%8w>>:::::::::::;#@XX",
"rq>::::;;OX;6q>-:::::::::::::::::::::::;;@ ;9q>::::::::::::;;+XX",
"tq>::::;;+ @8q5::::::>:::::::::::::::::;#@.#9q7::::::>:::::;;OOX",
"tq>>:::;;XX;8w>>:::::::::::::::::>:::::;;XX;9w5>::::::::::>;;@XX",
"tq>>:>:;;.X;8q5::::::::::::::::::::::::;;+.;9q>:::>::::::::;;@+X",
"tq5::::;;@ @8w>>;>:::::::>:::::>:::::::;#@X;8e>:::::::::::-;@+XX",
"tq>::::;;XX;8w>>:::::::::::::::::::::-:;#@ ;8q5::::::::::;;;;XoX",
"tq>::::;@XX;8w5>::::::::::::::::::::;;;;;o ;8q5:::::::::::;;;@oX",
"qq7::::;;@X;8e>:::>:::::::::::::::::;-;;;X ;8e>:::::::::::;;;@oX",
"rq>::-;;;XX-5q5;::::::::::::::>;:::::::;;  ;685;:::::::-:::;;+XX",
"eq7;:;;;;X.@8q5;::::>::::::>:::;::::::>;;oX-8q5;:::::::;:>:;;XOX",
"tq5>::-;;@X;8q5:;:;;::::::>;::;;:>:::>:;;  -8q5;::::::;;::>;;@OX",
"tq>;;;;;@XX;8q>;;;;;;;;;;;;;;;;;;;;;;;;;-@ #8q5;;;;;;;;;;;;;;@XX",
"t0;;;@;;-@ ;8q:;;#;;#;#;;;##;#;;#;#;;#%%@o #8q;;;;;@;;o@o;o;+@OX",
"85;OX;XooX ;55;@@@X@@@@@+@@@@#++@@@@@@@@;@o;5-;@+@@oX;o;X;o;@OXX",
";;XXoooo oXoo;XXX+X+XXX++X+++XXOXXX+OOOOoo  ;;@XooXXooooXXooooXX",
" X.XXXXXXXXX X XXXXXXXXXXXXXXXXXXXXXXXXXXXX   XXXXXXXXXXXXXXXXXX"
};
