/* XPM */
static char *result[] = {
/* columns rows colors chars-per-pixel */
"64 64 170 2 ",
"   c #0F071E",
".  c #110B1E",
"X  c #140C22",
"o  c #171124",
"O  c #181324",
"+  c #131926",
"@  c #1A1B26",
"#  c #171A2A",
"$  c #181D2B",
"%  c #171729",
"&  c #221C2D",
"*  c #1B242B",
"=  c #1F2A2C",
"-  c #192630",
";  c #172934",
":  c #192B33",
">  c #163136",
",  c #1D3231",
"<  c #1D3B36",
"1  c #183239",
"2  c #163B3C",
"3  c #193C3E",
"4  c #173238",
"5  c #212E2B",
"6  c #24322C",
"7  c #27382D",
"8  c #272232",
"9  c #243533",
"0  c #213D35",
"q  c #353D3D",
"w  c #383F3F",
"e  c #1C423E",
"r  c #1D493E",
"t  c #224035",
"y  c #20453A",
"u  c #224A3B",
"i  c #284734",
"p  c #36403D",
"a  c #38413F",
"s  c #27543C",
"d  c #2C5B3B",
"f  c #29583C",
"g  c #325532",
"h  c #345833",
"j  c #27643F",
"k  c #2F633E",
"l  c #336B3E",
"z  c #31673E",
"x  c #3F7638",
"c  c #437C3B",
"v  c #193E40",
"b  c #223D43",
"n  c #353D4B",
"m  c #433E4C",
"M  c #423F50",
"N  c #1C4440",
"B  c #1F4B40",
"V  c #274146",
"C  c #204E41",
"Z  c #284347",
"A  c #394340",
"S  c #235541",
"D  c #265C42",
"F  c #285E42",
"G  c #2D5D4B",
"H  c #31574C",
"J  c #38585B",
"K  c #276242",
"L  c #2A6543",
"P  c #2D6B43",
"I  c #306F44",
"U  c #3A674D",
"Y  c #327444",
"T  c #367C45",
"R  c #387F46",
"E  c #377749",
"W  c #3C7251",
"Q  c #376950",
"!  c #464351",
"~  c #444A55",
"^  c #4E4A58",
"/  c #476347",
"(  c #486648",
")  c #4A6949",
"_  c #486747",
"`  c #487D4E",
"'  c #4D6450",
"]  c #406D5E",
"[  c #437C54",
"{  c #467E58",
"}  c #4B755E",
"|  c #435F64",
" . c #456364",
".. c #4D7A63",
"X. c #507A6B",
"o. c #536E70",
"O. c #47853D",
"+. c #48893E",
"@. c #378045",
"#. c #3A8346",
"$. c #3D8A47",
"%. c #3E8C48",
"&. c #3E854A",
"*. c #438F4B",
"=. c #499A47",
"-. c #4B9D49",
";. c #44914A",
":. c #478259",
">. c #498358",
",. c #4B8959",
"<. c #518A5C",
"1. c #4F9756",
"2. c #4F9954",
"3. c #519C56",
"4. c #52945A",
"5. c #579E5B",
"6. c #4DA148",
"7. c #53AD49",
"8. c #58B14C",
"9. c #57A15B",
"0. c #58A15C",
"q. c #67B058",
"w. c #68B259",
"e. c #6ABC5E",
"r. c #65AD57",
"t. c #58816F",
"y. c #589362",
"u. c #6C8D69",
"i. c #709F6D",
"p. c #6B9E71",
"a. c #719C72",
"s. c #63A564",
"d. c #6DA673",
"f. c #77AB73",
"g. c #79AC74",
"h. c #73A172",
"j. c #74B374",
"k. c #79BC75",
"l. c #7FBE7A",
"z. c #6CC55A",
"x. c #77D260",
"c. c #7BD16A",
"v. c #7BC177",
"b. c #7ACE69",
"n. c #82AD7B",
"m. c #84B37C",
"M. c #86BA7D",
"N. c #89BC7E",
"B. c #83C67A",
"V. c #778693",
"C. c #7B9599",
"Z. c #A29FA6",
"A. c #9EA6A9",
"S. c #9BADBA",
"D. c #A5A7AC",
"F. c #A1B4AF",
"G. c #A7ADB7",
"H. c #87C283",
"J. c #88C584",
"K. c #8CCC84",
"L. c #8ED186",
"P. c #92D384",
"I. c #98DF87",
"U. c #ACBEC2",
"Y. c #C2C2C9",
"T. c #CFD7D7",
"R. c #C5D3D0",
"E. c #DEE5F2",
"W. c white",
"Q. c None",
/* pixels */
"Q.Q.Q.Q.Q.Q.Q.Q.Q.Q.Q.Q.Q.Q.Q.Q.Q.Q.Q.Q.Q.Q.Q.Q.o X o o O X O o o O O O O O O O Q.Q.Q.Q.Q.Q.Q.Q.Q.Q.Q.Q.Q.Q.Q.Q.Q.Q.Q.Q.Q.Q.Q.Q.",
"Q.Q.Q.Q.Q.Q.Q.Q.Q.Q.Q.Q.Q.Q.Q.Q.Q.Q.Q.Q.Q.Q.Q.Q.a p 9 = 5 5 6 = * * * * * * $ $ Q.Q.Q.Q.Q.Q.Q.Q.Q.Q.Q.Q.Q.Q.Q.Q.Q.Q.Q.Q.Q.Q.Q.Q.",
"Q.Q.Q.Q.Q.Q.Q.Q.Q.Q.Q.Q.Q.Q.Q.Q.Q.Q.o X X X . p u.i.` l l l I k s y u u u y 3 : $ o Q.Q.Q.Q.Q.Q.Q.Q.Q.Q.Q.Q.Q.Q.Q.Q.Q.Q.Q.Q.Q.Q.",
"Q.Q.Q.Q.Q.Q.Q.Q.Q.Q.Q.Q.Q.Q.Q.Q.Q.Q.p a A a p ' g.v.3.$.#.*.*.@.Y L P L F S C 3 - $ Q.Q.Q.Q.Q.Q.Q.Q.Q.Q.Q.Q.Q.Q.Q.Q.Q.Q.Q.Q.Q.Q.",
"Q.Q.Q.Q.Q.Q.Q.Q.Q.Q.Q.Q.Q.Q.Q.Q.  q u.m.n.n.g.f.s.3.;.$.$.$.%.$.#.R T E L D S C 3 : @ o Q.Q.Q.Q.Q.Q.Q.Q.Q.Q.Q.Q.Q.Q.Q.Q.Q.Q.Q.Q.",
"Q.Q.Q.Q.Q.Q.Q.Q.Q.Q.Q.Q.Q.Q.Q.Q.p ' f.L.K.L.L.v.2.$.$.$.$.$.$.$.$.%.%.@.I L F S C 3 - $ Q.Q.Q.Q.Q.Q.Q.Q.Q.Q.Q.Q.Q.Q.Q.Q.Q.Q.Q.Q.",
"Q.Q.Q.Q.Q.Q.Q.Q.Q.Q.Q.Q.Q.Q.  q u.f.s.0.0.0.9.2.;.$.$.$.$.%.$.%.$.$.$.$.@.E L D S C 3 : $ O Q.Q.Q.Q.Q.Q.Q.Q.Q.Q.Q.Q.Q.Q.Q.Q.Q.Q.",
"Q.Q.Q.Q.Q.Q.Q.Q.Q.Q.Q.Q.Q.Q.q ' g.v.2.@.T T T @.T @.T @.T R R @.#.$.$.$.%.@.I L F S u 3 - $ Q.Q.Q.Q.Q.Q.Q.Q.Q.Q.Q.Q.Q.Q.Q.Q.Q.Q.",
"Q.Q.Q.Q.Q.Q.Q.Q.Q.Q.Q.Q.  q u.g.s.3.%.#.I L K L P L L L L L L Y #.%.%.$.$.%.@.Y L D S S 3 : $ O Q.Q.Q.Q.Q.Q.Q.Q.Q.Q.Q.Q.Q.Q.Q.Q.",
"Q.Q.Q.Q.Q.Q.Q.Q.Q.Q.Q.Q.q ) f.l.3.@.#.Y K S S B S S S S S S S D Y @.$.$.#.$.$.@.I L D S N > $ O Q.Q.Q.Q.Q.Q.Q.Q.Q.Q.Q.Q.Q.Q.Q.Q.",
"Q.Q.Q.Q.Q.Q.Q.Q.Q.Q.X p u.f.s.3.%.#.I K B N N N N N N N N N N B K I #.$.$.$.$.#.#.Y L S N > $ O Q.Q.Q.Q.Q.Q.Q.Q.Q.Q.Q.Q.Q.Q.Q.Q.",
"Q.Q.Q.Q.Q.Q.Q.Q.Q.Q.X a m.L.0.@.@.Y D N e 2 v v 2 2 2 v 3 v 2 2 r f Y #.%.$.$.%.%.R P S C 3 - $ Q.Q.Q.Q.Q.Q.Q.Q.Q.Q.Q.Q.Q.Q.Q.Q.",
"Q.Q.Q.Q.Q.Q.Q.Q.Q.Q.. A n.L.0.T P D B N 4 2 v 2 2 2 3 v v v 2 2 2 r D I @.%.#.$.%.T L S S C 3 : $ O Q.Q.Q.Q.Q.Q.Q.Q.Q.Q.Q.Q.Q.Q.",
"Q.Q.Q.Q.Q.Q.Q.Q.Q.Q.q ) f.k.2.T K G J |  .J b V |  .V > 4 b J |  .J G L T %.$.$.%.#.Y L K S N 1 $ O Q.Q.Q.Q.Q.Q.Q.Q.Q.Q.Q.Q.Q.Q.",
"Q.Q.Q.Q.Q.Q.Q.Q.X a u.g.s.2.*.T K W C.S.S.V.n ! F.D.^ + + n V.S.S.C.W L T $.$.$.%.$.T Y L S N 1 @ O Q.Q.Q.Q.Q.Q.Q.Q.Q.Q.Q.Q.Q.Q.",
"Q.Q.Q.Q.Q.Q.Q.Q.X p d.v.2.#.$.T K X.U.E.E.G.M m Z.D.!   X ! G.E.E.U.X.L T %.$.%.$.$.%.T P S B 3 - $ Q.Q.Q.Q.Q.Q.Q.Q.Q.Q.Q.Q.Q.Q.",
"Q.Q.Q.Q.Q.Q.Q.Q.o 9 ` 3.;.%.$.T j X.R.W.W.Y.^ & m ! 8 X . ^ Y.W.W.R.t.K T $.$.#.$.$.$.R P D S C 3 : $ O Q.Q.Q.Q.Q.Q.Q.Q.Q.Q.Q.Q.",
"Q.Q.Q.Q.Q.Q.Q.Q.o = l $.$.%.%.T L ..F.T.T.A.~ + + + # + + ~ A.T.T.F...L T $.$.$.$.$.%.R L D D S C > $ O Q.Q.Q.Q.Q.Q.Q.Q.Q.Q.Q.Q.",
"Q.Q.Q.Q.Q.Q.Q.Q.X 6 I %.$.$.$.T L G  .o.o.| V > > > 4 4 4 V | o.o. .L L T %.$.&.$.$.$.R P D D S N 1 $ O Q.Q.Q.Q.Q.Q.Q.Q.Q.Q.Q.Q.",
"Q.Q.Q.Q.Q.Q.Q.Q.o = k #.$.$.$.@.Y D r 2 2 2 2 3 v v v v N 2 2 2 2 r f Y @.$.$.$.$.#.R E L D D S N 1 $ O Q.Q.Q.Q.Q.Q.Q.Q.Q.Q.Q.Q.",
"Q.Q.Q.Q.Q.Q.Q.Q.o * s Y #.$.$.$.@.Y f r 2 2 3 3 2 N v 2 v 2 2 e r D Y @.#.$.$.$.$.@.Y L F D D S N 1 $ O Q.Q.Q.Q.Q.Q.Q.Q.Q.Q.Q.Q.",
"Q.Q.Q.Q.Q.Q.Q.Q.O * 0 f Y R #.$.%.@.Y K r e N N N N N N N N e r D I #.%.$.$.$.$.$.R L D D D S S N 1 $ O Q.Q.Q.Q.Q.Q.Q.Q.Q.Q.Q.Q.",
"Q.Q.Q.Q.Q.Q.Q.Q.Q.Q.* 9 s Y @.*.%.$.#.Y D S S S s S S S S S S D Y #.$.$.$.$.$.$.$.R L D D S N N N 1 $ O Q.Q.Q.Q.Q.Q.Q.Q.Q.Q.Q.Q.",
"Q.Q.Q.Q.Q.Q.Q.Q.Q.Q.X * u L R $.$.$.$.@.I L L L L L K L L L L l #.#.$.$.#.$.$.%.@.Y L D D S N v 2 ; $ O Q.Q.Q.Q.Q.Q.Q.Q.Q.Q.Q.Q.",
"Q.Q.Q.Q.Q.Q.Q.Q.Q.Q.O * y P @.$.$.$.$.@.R T T T T T T T T T T R #.#.$.#.#.#.$.#.I L D D D S N 1 - $ Q.Q.Q.Q.Q.Q.Q.Q.Q.Q.Q.Q.Q.Q.",
"Q.Q.Q.Q.Q.Q.Q.Q.Q.Q.O * 0 d T $.@.&.2.0.5.5.0.0.9.9.5.9.0.0.5.5.9.9.0.0.0.2.$.Y L S D D K S N 1 $ O Q.Q.Q.Q.Q.Q.Q.Q.Q.Q.Q.Q.Q.Q.",
"Q.Q.Q.Q.Q.Q.Q.Q.Q.Q.Q.Q.* 0 Y @.I W j.L.K.K.K.K.K.K.B.L.K.K.K.K.L.K.L.K.L.j.[ f D D D D D S N 1 $ O Q.Q.Q.Q.Q.Q.Q.Q.Q.Q.Q.Q.Q.Q.",
"Q.Q.Q.Q.Q.Q.Q.Q.Q.Q.Q.Q.X 5 l %.:.<.h.N.P.P.m.n.n.N.P.P.m.m.P.P.M.g.g.N.P.v.y.W L D D D D S N 2 $ O Q.Q.Q.Q.Q.Q.Q.Q.Q.Q.Q.Q.Q.Q.",
"Q.Q.Q.Q.Q.Q.Q.Q.Q.Q.Q.Q.o 5 z 2.j.h.( ( w.w.( w w ) w.q./ / q.w._ w w ) q.c.B.d.W K D D D S V 1 $ O Q.Q.Q.Q.Q.Q.Q.Q.Q.Q.Q.Q.Q.Q.",
"Q.Q.Q.Q.Q.Q.Q.Q.Q.Q.Q.Q.o = k 5.L.g.a = c +.h 5 O 6 c O.g g O.+.g 5 O 5 x q.P.H.W D D D D S e 1 $ O Q.Q.Q.Q.Q.Q.Q.Q.Q.Q.Q.Q.Q.Q.",
"Q.Q.Q.Q.Q.Q.Q.Q.Q.Q.Q.Q.o * u ,.K.m.A O 5 g +.c 6 @ 5 h O.+.g g +.c 6 O 5 ) N.J.{ S D D D S N 2 $ O Q.Q.Q.Q.Q.Q.Q.Q.Q.Q.Q.Q.Q.Q.",
"Q.Q.Q.Q.Q.Q.Q.Q.Q.Q.Q.Q.O * y :.H.n.A X X 5 c O.7 . X 6 c c 6 6 c c 7 X . a n.H.{ s D D K S N 1 $ O Q.Q.Q.Q.Q.Q.Q.Q.Q.Q.Q.Q.Q.Q.",
"Q.Q.Q.Q.Q.Q.Q.Q.Q.Q.Q.Q.o * y { J.m.a . X @ 6 7 * O X @ 7 7 @ @ 7 7 * . . a n.B.{ f D D D S N 4 $ O Q.Q.Q.Q.Q.Q.Q.Q.Q.Q.Q.Q.Q.Q.",
"Q.Q.Q.Q.Q.Q.Q.Q.Q.Q.Q.Q.o * y :.J.m.a O 6 7 O X o @ 6 6 @ X o @ 6 5 @ O 5 ) N.J.{ D D D D S N 4 $ O Q.Q.Q.Q.Q.Q.Q.Q.Q.Q.Q.Q.Q.Q.",
"Q.Q.Q.Q.Q.Q.Q.Q.Q.Q.Q.Q.O * r :.J.m.w 5 c c 6 X   6 c c 6 X . 6 c c 5 5 c w.P.J.{ S D D D S N 4 * O Q.Q.Q.Q.Q.Q.Q.Q.Q.Q.Q.Q.Q.Q.",
"Q.Q.Q.Q.Q.Q.Q.Q.Q.Q.Q.Q.o * < U p.i.' _ q.q.( w a ) w.w._ w a ) w.w./ / r.b.M.a.W S D D D S N 4 $ O Q.Q.Q.Q.Q.Q.Q.Q.Q.Q.Q.Q.Q.Q.",
"Q.Q.Q.Q.Q.Q.Q.Q.Q.Q.Q.Q.Q.Q.* 9 H } a.N.P.P.N.n.n.N.L.B.N.n.n.M.P.P.m.N.L.M.{ H F D D D F S N 1 # o Q.Q.Q.Q.Q.Q.Q.Q.Q.Q.Q.Q.Q.Q.",
"Q.Q.Q.Q.Q.Q.Q.Q.Q.Q.Q.Q.Q.Q.o $ 1 U d.K.P.P.K.H.H.K.P.I.J.H.K.J.H.J.P.I.I.k.[ d S D D D D S C 3 - $ Q.Q.Q.Q.Q.Q.Q.Q.Q.Q.Q.Q.Q.Q.",
"Q.Q.Q.Q.Q.Q.Q.Q.Q.Q.Q.Q.Q.Q.X = d E [ 4.e.e.<.[ [ 4.e.e.4.:.4.3.>.4.e.x.x.z.8.;.I D D D D D S C 3 : $ O Q.Q.Q.Q.Q.Q.Q.Q.Q.Q.Q.Q.",
"Q.Q.Q.Q.Q.Q.Q.Q.Q.Q.Q.Q.Q.Q.o 9 l #.P Y =.6.#.I s I =.-.T P R T z Y =.7.7.7.8.=.I D D D D D F S N 1 $ O Q.Q.Q.Q.Q.Q.Q.Q.Q.Q.Q.Q.",
"Q.Q.Q.Q.Q.Q.Q.Q.Q.Q.Q.Q.Q.Q.O 5 l %.@.Y Y @.6.-.P f I Y T @.#.#.@.T Y Y Y E Y I L D D D D F D S C : $ o Q.Q.Q.Q.Q.Q.Q.Q.Q.Q.Q.Q.",
"Q.Q.Q.Q.Q.Q.Q.Q.Q.Q.Q.Q.Q.Q.X 5 l %.%.@.I T -.-.E L L P T #.$.$.$.@.P L L L L L D D D D D D D S C 3 : * Q.Q.Q.Q.Q.Q.Q.Q.Q.Q.Q.Q.",
"Q.Q.Q.Q.Q.Q.Q.Q.Q.Q.Q.Q.Q.Q.o 9 l %.%.$.R T T E R R T T P Y R $.$.$.@.T T R T E L D D D D D D D S S u y * O Q.Q.Q.Q.Q.Q.Q.Q.Q.Q.",
"Q.Q.Q.Q.Q.Q.Q.Q.Q.Q.Q.Q.Q.Q.X 5 l %.%.$.@.T P P @.%.$.R L L T %.$.$.$.$.$.$.$.@.L D D D D D D D D D K u * o Q.Q.Q.Q.Q.Q.Q.Q.Q.Q.",
"Q.Q.Q.Q.Q.Q.Q.Q.Q.Q.Q.Q.Q.Q.o = l $.*.R I I E R $.$.$.T L L R %.$.$.$.$.$.$.$.R L D D D D D D D D F F u * o Q.Q.Q.Q.Q.Q.Q.Q.Q.Q.",
"Q.Q.Q.Q.Q.Q.Q.Q.Q.Q.Q.Q.Q.Q.= i l $.$.T L L R %.$.$.@.E L L Y @.#.$.#.$.$.$.%.R L D D D D D F D S S S u , * Q.Q.Q.Q.Q.Q.Q.Q.Q.Q.",
"Q.Q.Q.Q.Q.Q.Q.Q.Q.Q.Q.Q.o 5 d x $.$.$.T L L R %.%.@.I L F D L I @.%.$.$.$.$.$.T L D D D D D D S C N N C u 0 * X Q.Q.Q.Q.Q.Q.Q.Q.",
"Q.Q.Q.Q.Q.Q.Q.Q.Q.Q.Q.Q.# 9 l *.$.$.*.R L j I R &.R L D S S S L E @.$.$.$.$.$.T L F D D S S s C v 3 v v S u , * Q.Q.Q.Q.Q.Q.Q.Q.",
"Q.Q.Q.Q.Q.Q.Q.Q.Q.Q.o O ; y Y %.$.$.%.#.L s S D T R P s B B S D L I @.%.$.$.$.T L D D S N N N N 3 v 3 v N r u 0 * o Q.Q.Q.Q.Q.Q.",
"Q.Q.Q.Q.Q.Q.Q.Q.Q.Q.$ - V K T %.%.&.@.E L S v C E R L S N N S D D L E @.$.$.$.#.I L F S C v v 2 v 3 v 3 3 b C u : * Q.Q.Q.Q.Q.Q.",
"Q.Q.Q.Q.Q.Q.Q.Q.O $ ; y L T $.$.%.@.Y L D S 2 C E R P S N N S D D D K I R $.$.$.R Y L D S C N v 2 v 3 v v 3 v C u 0 * o Q.Q.Q.Q.",
"Q.Q.Q.Q.Q.Q.Q.Q.# - e F R $.$.$.@.Y L S D S C F T @.L S N N B S D D f L E @.#.$.*.@.I L F S B N v 3 v 3 3 v 3 v S u , * Q.Q.Q.Q.",
"Q.Q.Q.Q.Q.Q.O $ ; y L R $.*.$.@.I L D S N S P R $.T L S N 3 e B S D D D L I @.$.$.#.@.E L S S S v v 3 v 3 v 2 v N r u t * O Q.Q.",
"Q.Q.Q.Q.Q.Q.X * 3 L R $.@.R T E L D D S e C E %.#.Y L S B N 3 N S D D D D L E #.$.$.$.#.I L K S C 3 v 3 v 3 v v v N S y * O Q.Q.",
"Q.Q.Q.Q.Q.Q.X = d R $.@.Y L L L F D D S e C T @.Y L D D S C e N S F D D D D L Y #.%.$.$.#.Y L S S C e 3 3 v 3 v 3 v N 3 $ O Q.Q.",
"Q.Q.Q.Q.Q.Q.5 i Y *.@.Y L D D D D D S S C D Y E L D D D D S N N C S D K D D S L Y #.#.$.%.#.Y L F S C N N N v 2 3 v v 1 $ O Q.Q.",
"Q.Q.Q.Q.o 5 h T *.R Y L D D D D K S B C I Y P L K D D D D S N v e B S D D D D K L Y #.%.%.$.#.Y L D S S S C v v v 3 v 1 $ O Q.Q.",
"Q.Q.Q.Q.o 5 d Y R Y L D D D S s u u C F Y E P S D D D D F f 3 1 2 N S S D D D D S L E @.@.T @.E L D D D F S C N v v v 1 - $ Q.Q.",
"Q.Q.Q.Q.o @ = 0 d L L D D D B 3 - 9 z E P L K F D D K F F u : - 1 N N B S F D D D F L P P L P L K D F F F D D S N v v 3 3 : $ O ",
"Q.Q.Q.Q.O o O $ 0 y y u u e < ; O 5 d L s u u u u C u u u 0 * $ : 1 4 1 u u u C u u u u u u u u u u u u u u u y 1 1 1 1 1 : $ O ",
"Q.Q.Q.Q.Q.Q.O @ * * * * * * $ $ O $ 5 5 = * * * * * * * * * O O $ * $ $ * * * * * * * * * - * * * * * = * * - * $ $ * $ $ $ @ O ",
"Q.Q.Q.Q.Q.Q.O O O O O O O O O O O O O o O O O O O O O O O O O O O O O O O o O O O O O O O O O O O O O O O O O O O O O O O O O O ",
"Q.Q.Q.Q.Q.Q.Q.Q.Q.Q.Q.Q.Q.Q.Q.Q.Q.Q.Q.Q.Q.Q.Q.Q.Q.Q.Q.Q.Q.Q.Q.Q.Q.Q.Q.Q.Q.Q.Q.Q.Q.Q.Q.Q.Q.Q.Q.Q.Q.Q.Q.Q.Q.Q.Q.Q.Q.Q.Q.Q.Q.Q.Q.Q.",
"Q.Q.Q.Q.Q.Q.Q.Q.Q.Q.Q.Q.Q.Q.Q.Q.Q.Q.Q.Q.Q.Q.Q.Q.Q.Q.Q.Q.Q.Q.Q.Q.Q.Q.Q.Q.Q.Q.Q.Q.Q.Q.Q.Q.Q.Q.Q.Q.Q.Q.Q.Q.Q.Q.Q.Q.Q.Q.Q.Q.Q.Q.Q.Q."
};
